<svg width="18" height="19" viewBox="0 0 18 19" fill="none" xmlns="http://www.w3.org/2000/svg">
<g clip-path="url(#clip0_505_1134)">
<path d="M15.3487 8.56744V3.84206C15.3487 2.71898 14.4652 1.79138 13.3861 1.79138H13.1417V1.47105C13.1417 0.669751 12.5176 0.0201514 11.7478 0.0201514C10.978 0.0201514 10.3539 0.669751 10.3539 1.47105V1.79138H5.24294V1.47105C5.24294 0.658627 4.61019 0 3.82968 0C3.04918 0 2.41643 0.658627 2.41643 1.47105V1.79138H2.20521C1.12622 1.79138 0.248138 2.71898 0.248138 3.84206V14.6925C0.248138 15.8156 1.12622 16.7437 2.20521 16.7437H8.34588C9.35828 18.0042 10.8547 18.7336 12.4331 18.7361C15.3642 18.7361 17.7518 16.2503 17.7518 13.1993C17.7519 11.2655 16.7813 9.55703 15.3487 8.56744ZM11.1283 1.47105C11.1223 1.12001 11.3909 0.830398 11.7281 0.824191C11.7335 0.824111 11.7389 0.82407 11.7444 0.82411C12.0848 0.820362 12.3637 1.10458 12.3673 1.45896C12.3674 1.46299 12.3674 1.46702 12.3673 1.47105V3.04076H11.1283V1.47105ZM3.19081 1.47105C3.19449 1.1099 3.47877 0.820241 3.82574 0.82407C3.82635 0.82407 3.82694 0.82407 3.82752 0.82411C4.17576 0.82411 4.46855 1.10861 4.46855 1.47105V3.04076H3.19081V1.47105ZM1.02253 3.84206C1.02253 3.1634 1.55322 2.59743 2.20521 2.59743H2.41643V3.46055C2.41643 3.68311 2.595 3.84682 2.80885 3.84682H4.84626C5.06007 3.84682 5.24294 3.68311 5.24294 3.46055V2.59743H10.3539V3.46055C10.3482 3.66791 10.505 3.84085 10.7042 3.84682C10.7114 3.84702 10.7185 3.84702 10.7256 3.84682H12.763C12.9653 3.85383 13.1348 3.68879 13.1416 3.47821C13.1417 3.47232 13.1418 3.46644 13.1417 3.46055V2.59743H13.3861C14.0426 2.60432 14.5718 3.15881 14.5743 3.84206V5.1365H1.02253V3.84206ZM2.20521 15.9376C1.55322 15.9376 1.02253 15.3712 1.02253 14.6925V5.94256H14.5743V8.12914C13.9003 7.82111 13.1722 7.66224 12.4361 7.66252C9.50502 7.66252 7.11886 10.1519 7.11886 13.2029C7.11739 14.1614 7.3554 15.1038 7.80958 15.9376H2.20521ZM12.4331 17.9228C9.92497 17.9228 7.8917 15.8064 7.8917 13.1957C7.8917 10.585 9.92497 8.46853 12.4331 8.46853C14.9413 8.46853 16.9746 10.585 16.9746 13.1957V13.1957C16.9718 15.8052 14.9401 17.9199 12.4331 17.9228Z" fill="black"/>
<path d="M14.2572 13.1971H12.5609V10.772C12.5609 10.5495 12.3876 10.369 12.1737 10.369C11.9599 10.369 11.7865 10.5495 11.7865 10.772V13.5997C11.7899 13.8238 11.9656 14.0035 12.181 14.0031H14.2572C14.4711 14.0031 14.6444 13.8227 14.6444 13.6001C14.6444 13.3775 14.4711 13.1971 14.2572 13.1971Z" fill="black"/>
</g>
<defs>
<clipPath id="clip0_505_1134">
<rect width="18" height="18.7361" fill="white"/>
</clipPath>
</defs>
</svg>
