<svg width="18" height="18" viewBox="0 0 18 18" fill="none" xmlns="http://www.w3.org/2000/svg">
<path fill-rule="evenodd" clip-rule="evenodd" d="M9 0C4.02942 0 0 4.02942 0 9C0 13.9706 4.02942 18 9 18C13.9706 18 18 13.9706 18 9C18 4.02942 13.9706 0 9 0ZM9 16.8387C4.69365 16.8387 1.16129 13.3528 1.16129 9C1.16129 4.69368 4.64716 1.16129 9 1.16129C13.3064 1.16129 16.8387 4.64716 16.8387 9C16.8387 13.3063 13.3528 16.8387 9 16.8387ZM7.59012 13.3574L14.1398 6.86029C14.3105 6.69092 14.3117 6.41519 14.1423 6.24444L13.8356 5.93525C13.6662 5.7645 13.3905 5.76341 13.2197 5.93278L7.2884 11.8165L4.78524 9.29315C4.61588 9.12241 4.34014 9.12132 4.16939 9.29069L3.8602 9.59737C3.68946 9.76674 3.68837 10.0425 3.85773 10.2132L6.97427 13.3549C7.14364 13.5257 7.41937 13.5268 7.59012 13.3574Z" fill="#155724"/>
</svg>
