<svg width="10" height="16" viewBox="0 0 10 16" fill="none" xmlns="http://www.w3.org/2000/svg">
<path d="M4.85227 15.4545V0.90909H5.78409V15.4545H4.85227ZM7.32386 5.71023C7.27841 5.25189 7.08333 4.89583 6.73864 4.64205C6.39394 4.38826 5.92614 4.26136 5.33523 4.26136C4.93371 4.26136 4.5947 4.31818 4.31818 4.43182C4.04167 4.54167 3.82955 4.69508 3.68182 4.89205C3.53788 5.08902 3.46591 5.3125 3.46591 5.5625C3.45833 5.77083 3.50189 5.95265 3.59659 6.10795C3.69508 6.26326 3.82955 6.39773 4 6.51136C4.17045 6.62121 4.36742 6.7178 4.59091 6.80114C4.81439 6.88068 5.05303 6.94886 5.30682 7.00568L6.35227 7.25568C6.85985 7.36932 7.32576 7.52083 7.75 7.71023C8.17424 7.89962 8.54167 8.13258 8.85227 8.40909C9.16288 8.68561 9.40341 9.01136 9.57386 9.38636C9.74811 9.76136 9.83712 10.1913 9.84091 10.6761C9.83712 11.3883 9.6553 12.0057 9.29545 12.5284C8.93939 13.0473 8.42424 13.4508 7.75 13.7386C7.07955 14.0227 6.27083 14.1648 5.32386 14.1648C4.38447 14.1648 3.56629 14.0208 2.86932 13.733C2.17614 13.4451 1.63447 13.0189 1.24432 12.4545C0.857955 11.8864 0.655303 11.1837 0.636364 10.3466H3.01705C3.04356 10.7367 3.1553 11.0625 3.35227 11.3239C3.55303 11.5814 3.82008 11.7765 4.15341 11.9091C4.49053 12.0379 4.87121 12.1023 5.29545 12.1023C5.71212 12.1023 6.07386 12.0417 6.38068 11.9205C6.69129 11.7992 6.93182 11.6307 7.10227 11.4148C7.27273 11.1989 7.35795 10.9508 7.35795 10.6705C7.35795 10.4091 7.2803 10.1894 7.125 10.0114C6.97348 9.83333 6.75 9.68182 6.45455 9.55682C6.16288 9.43182 5.80492 9.31818 5.38068 9.21591L4.11364 8.89773C3.13258 8.65909 2.35795 8.28598 1.78977 7.77841C1.22159 7.27083 0.939394 6.58712 0.943182 5.72727C0.939394 5.02273 1.12689 4.4072 1.50568 3.88068C1.88826 3.35417 2.41288 2.94318 3.07955 2.64773C3.74621 2.35227 4.50379 2.20455 5.35227 2.20455C6.21591 2.20455 6.9697 2.35227 7.61364 2.64773C8.26136 2.94318 8.76515 3.35417 9.125 3.88068C9.48485 4.4072 9.67045 5.01705 9.68182 5.71023H7.32386Z" fill="#475569"/>
</svg>
