<svg width="18" height="18" viewBox="0 0 18 18" fill="none" xmlns="http://www.w3.org/2000/svg">
<path d="M10.5361 7.04615C10.8378 7.39377 11.3641 7.43105 11.7117 7.12942C12.0593 6.82779 12.0966 6.30147 11.795 5.95385L10.5361 7.04615ZM7.46389 10.9539C7.16226 10.6062 6.63594 10.569 6.28832 10.8706C5.94071 11.1722 5.90343 11.6985 6.20505 12.0461L7.46389 10.9539ZM9.83333 4.83333C9.83333 4.3731 9.46024 4 9 4C8.53976 4 8.16667 4.3731 8.16667 4.83333H9.83333ZM8.16667 13.1666C8.16666 13.6269 8.53974 14 8.99998 14C9.46022 14 9.83332 13.6269 9.83333 13.1667L8.16667 13.1666ZM15.6667 9C15.6667 12.6819 12.6819 15.6667 9 15.6667V17.3333C13.6024 17.3333 17.3333 13.6024 17.3333 9H15.6667ZM9 15.6667C5.3181 15.6667 2.33333 12.6819 2.33333 9H0.666667C0.666667 13.6024 4.39763 17.3333 9 17.3333V15.6667ZM2.33333 9C2.33333 5.3181 5.3181 2.33333 9 2.33333V0.666667C4.39763 0.666667 0.666667 4.39763 0.666667 9H2.33333ZM9 2.33333C12.6819 2.33333 15.6667 5.3181 15.6667 9H17.3333C17.3333 4.39763 13.6024 0.666667 9 0.666667V2.33333ZM9 8.16667C8.45122 8.16667 7.99208 8.01687 7.69448 7.81847C7.39106 7.61619 7.33333 7.42825 7.33333 7.33333H5.66667C5.66667 8.15889 6.16859 8.80429 6.76998 9.20522C7.3772 9.61003 8.16807 9.83333 9 9.83333V8.16667ZM7.33333 7.33333C7.33333 7.23841 7.39106 7.05048 7.69448 6.8482C7.99208 6.6498 8.45122 6.5 9 6.5V4.83333C8.16807 4.83333 7.3772 5.05663 6.76998 5.46145C6.16859 5.86238 5.66667 6.50778 5.66667 7.33333H7.33333ZM9 6.5C9.75315 6.5 10.3025 6.77693 10.5361 7.04615L11.795 5.95385C11.164 5.22674 10.0976 4.83333 9 4.83333V6.5ZM9 9.83333C9.54878 9.83333 10.0079 9.98313 10.3055 10.1815C10.609 10.3838 10.6667 10.5718 10.6667 10.6667H12.3334C12.3334 9.8411 11.8314 9.19571 11.23 8.79478C10.6228 8.38997 9.83193 8.16667 9 8.16667V9.83333ZM8.16667 4.83333V5.66667H9.83333V4.83333H8.16667ZM8.16668 12.3333L8.16667 13.1666L9.83333 13.1667L9.83335 12.3334L8.16668 12.3333ZM9.00002 11.5C8.24687 11.5 7.69749 11.2231 7.46389 10.9539L6.20505 12.0461C6.83597 12.7733 7.90247 13.1667 9.00001 13.1667L9.00002 11.5ZM10.6667 10.6667C10.6667 10.7616 10.609 10.9495 10.3055 11.1518C10.0079 11.3502 9.5488 11.5 9.00002 11.5V13.1667C9.83195 13.1667 10.6228 12.9434 11.23 12.5386C11.8314 12.1376 12.3334 11.4922 12.3334 10.6667H10.6667ZM8.16667 5.66667L8.16668 12.3333L9.83335 12.3333L9.83333 5.66666L8.16667 5.66667Z" fill="#0271E8"/>
</svg>
