<svg width="11" height="11" viewBox="0 0 11 11" fill="none" xmlns="http://www.w3.org/2000/svg">
<g clip-path="url(#clip0_232_427)">
<path d="M5.49997 0.216553C3.25934 0.216553 1.43652 1.90873 1.43652 3.98878C1.43652 4.67355 1.76734 5.41002 1.7812 5.44108C1.88804 5.67652 2.09887 6.0422 2.25089 6.25655L5.03698 10.1754C5.151 10.3361 5.31975 10.4282 5.49997 10.4282C5.6802 10.4282 5.84895 10.3361 5.96297 10.1757L8.7493 6.25655C8.90156 6.0422 9.11214 5.67652 9.21899 5.44108C9.23285 5.41024 9.56342 4.67377 9.56342 3.98878C9.56342 1.90873 7.74061 0.216553 5.49997 0.216553ZM8.77822 5.26889C8.68285 5.47992 8.48661 5.82008 8.35012 6.01224L5.56379 9.93136C5.50882 10.0088 5.49137 10.0088 5.43639 9.93136L2.65006 6.01224C2.51358 5.82008 2.31734 5.47969 2.22196 5.26867C2.2179 5.25957 1.91458 4.58168 1.91458 3.98878C1.91458 2.15348 3.52299 0.660344 5.49997 0.660344C7.47696 0.660344 9.08537 2.15348 9.08537 3.98878C9.08537 4.58257 8.78133 5.26224 8.77822 5.26889Z" fill="#0271E8"/>
<path d="M5.49999 1.99207C4.3137 1.99207 3.34875 2.88808 3.34875 3.98913C3.34875 5.09017 4.3137 5.98619 5.49999 5.98619C6.68628 5.98619 7.65123 5.09017 7.65123 3.98913C7.65123 2.88808 6.68628 1.99207 5.49999 1.99207ZM5.49999 5.5424C4.57759 5.5424 3.82681 4.84564 3.82681 3.98913C3.82681 3.13261 4.57759 2.43586 5.49999 2.43586C6.4224 2.43586 7.17318 3.13261 7.17318 3.98913C7.17318 4.84564 6.4224 5.5424 5.49999 5.5424Z" fill="#0271E8"/>
</g>
<defs>
<clipPath id="clip0_232_427">
<rect width="11" height="10.2116" fill="white" transform="translate(0 0.216553)"/>
</clipPath>
</defs>
</svg>
