<svg width="18" height="16" viewBox="0 0 18 16" fill="none" xmlns="http://www.w3.org/2000/svg">
<path d="M1.5 5.49992C1.5 4.57944 2.24619 3.83325 3.16667 3.83325H3.94136C4.49862 3.83325 5.019 3.55475 5.32811 3.09109L6.00522 2.07542C6.31433 1.61175 6.83472 1.33325 7.39197 1.33325H10.608C11.1653 1.33325 11.6857 1.61175 11.9948 2.07542L12.6719 3.09109C12.981 3.55475 13.5014 3.83325 14.0586 3.83325H14.8333C15.7538 3.83325 16.5 4.57944 16.5 5.49992V12.9999C16.5 13.9204 15.7538 14.6666 14.8333 14.6666H3.16667C2.24619 14.6666 1.5 13.9204 1.5 12.9999V5.49992Z" stroke="#F2994A" stroke-width="1.66667" stroke-linecap="round" stroke-linejoin="round"/>
<path d="M11.5 8.83325C11.5 10.214 10.3807 11.3333 9 11.3333C7.61929 11.3333 6.5 10.214 6.5 8.83325C6.5 7.45254 7.61929 6.33325 9 6.33325C10.3807 6.33325 11.5 7.45254 11.5 8.83325Z" stroke="#F2994A" stroke-width="1.66667" stroke-linecap="round" stroke-linejoin="round"/>
</svg>
