<svg width="18" height="18" viewBox="0 0 18 18" fill="none" xmlns="http://www.w3.org/2000/svg">
<path d="M13.875 18H3.375C2.3415 18 1.5 17.1585 1.5 16.125V3.375C1.5 2.3415 2.3415 1.5 3.375 1.5H13.875C14.9085 1.5 15.75 2.3415 15.75 3.375V16.125C15.75 17.1585 14.9085 18 13.875 18ZM3.375 2.25C2.75475 2.25 2.25 2.75475 2.25 3.375V16.125C2.25 16.7452 2.75475 17.25 3.375 17.25H13.875C14.4952 17.25 15 16.7452 15 16.125V3.375C15 2.75475 14.4952 2.25 13.875 2.25H3.375Z" fill="#EF4665"/>
<path d="M4.875 3.75C4.668 3.75 4.5 3.582 4.5 3.375V0.375C4.5 0.168 4.668 0 4.875 0C5.082 0 5.25 0.168 5.25 0.375V3.375C5.25 3.582 5.082 3.75 4.875 3.75Z" fill="#EF4665"/>
<path d="M9 3.75C8.793 3.75 8.625 3.582 8.625 3.375V0.375C8.625 0.168 8.793 0 9 0C9.207 0 9.375 0.168 9.375 0.375V3.375C9.375 3.582 9.207 3.75 9 3.75Z" fill="#EF4665"/>
<path d="M12.375 3.75C12.168 3.75 12 3.582 12 3.375V0.375C12 0.168 12.168 0 12.375 0C12.582 0 12.75 0.168 12.75 0.375V3.375C12.75 3.582 12.582 3.75 12.375 3.75Z" fill="#EF4665"/>
<path d="M13.125 13.5H4.875C4.668 13.5 4.5 13.332 4.5 13.125C4.5 12.918 4.668 12.75 4.875 12.75H13.125C13.332 12.75 13.5 12.918 13.5 13.125C13.5 13.332 13.332 13.5 13.125 13.5Z" fill="#EF4665"/>
<path d="M13.125 10.5H4.875C4.668 10.5 4.5 10.332 4.5 10.125C4.5 9.918 4.668 9.75 4.875 9.75H13.125C13.332 9.75 13.5 9.918 13.5 10.125C13.5 10.332 13.332 10.5 13.125 10.5Z" fill="#EF4665"/>
<path d="M9.375 7.5H4.875C4.668 7.5 4.5 7.332 4.5 7.125C4.5 6.918 4.668 6.75 4.875 6.75H9.375C9.582 6.75 9.75 6.918 9.75 7.125C9.75 7.332 9.582 7.5 9.375 7.5Z" fill="#EF4665"/>
</svg>
