<svg width="18" height="18" viewBox="0 0 18 18" fill="none" xmlns="http://www.w3.org/2000/svg">
<g clip-path="url(#clip0_505_1123)">
<path d="M16.3898 4.43007C16.3432 4.34931 16.2664 4.29039 16.1763 4.26627L13.5392 3.5597C13.5749 3.45665 13.6012 3.34967 13.618 3.24002C14.016 3.11563 14.348 2.85055 14.5577 2.48721C14.7792 2.10369 14.838 1.65688 14.7233 1.2291C14.4867 0.346002 13.5756 -0.179904 12.6927 0.0566641C12.125 0.208786 11.7053 0.63977 11.5405 1.16269C11.4741 1.17281 11.408 1.18593 11.343 1.20336C10.8725 1.32944 10.4792 1.63122 10.2356 2.0531C10.1328 2.23117 10.0622 2.42171 10.0241 2.61778L5.15552 1.31326C5.06538 1.28908 4.96947 1.30177 4.88875 1.34839C4.808 1.395 4.74907 1.47178 4.72496 1.56186L1.57504 13.3174C1.55089 13.4075 1.56354 13.5034 1.61016 13.5842C1.65678 13.6649 1.73356 13.7239 1.82363 13.748L4.09045 14.3554V17.6485C4.09045 17.8426 4.24785 18 4.44202 18H15.8516C16.0458 18 16.2032 17.8426 16.2032 17.6485V5.52445L16.4249 4.69683C16.4491 4.6068 16.4364 4.51082 16.3898 4.43007ZM12.8747 0.735853C13.3834 0.599797 13.9079 0.902495 14.0442 1.41107C14.1102 1.65745 14.0763 1.91479 13.9488 2.13565C13.8213 2.35653 13.6153 2.51453 13.369 2.58055C13.1226 2.64651 12.8652 2.61268 12.6444 2.48517C12.4235 2.35762 12.2655 2.15175 12.1995 1.90537C12.0632 1.3968 12.3661 0.872155 12.8747 0.735853ZM10.8445 2.4047C10.9865 2.15867 11.2115 1.97937 11.4812 1.89546C11.4905 1.95941 11.5032 2.02346 11.5203 2.08734C11.6349 2.51513 11.9093 2.87267 12.2928 3.09412C12.4782 3.20113 12.6784 3.26962 12.884 3.29947C12.7713 3.65803 12.4823 3.94642 12.1051 4.04749C11.5082 4.20735 10.8925 3.85192 10.7325 3.25506C10.6551 2.96594 10.6949 2.66394 10.8445 2.4047ZM5.31313 2.0834L10.0318 3.34781C10.0383 3.37762 10.0454 3.40736 10.0534 3.43703C10.1068 3.63651 10.1917 3.81933 10.301 3.98179L9.93259 4.35023C9.7953 4.48751 9.7953 4.71012 9.93259 4.84744C10.0012 4.91607 10.0912 4.95042 10.1812 4.95042C10.2711 4.95042 10.3611 4.91607 10.4298 4.84744L10.799 4.4782C11.0954 4.67694 11.4484 4.78901 11.8155 4.78901C11.9712 4.78901 12.1296 4.76887 12.2871 4.72668C12.635 4.63345 12.9372 4.44234 13.1672 4.18794L15.6547 4.85444L13.2774 13.7266L11.4129 13.227C11.2253 13.1767 11.0325 13.2881 10.9823 13.4756L10.4827 15.3402L2.34521 13.1598L5.31313 2.0834ZM12.6153 14.2772L11.2906 15.042L11.5705 13.9972L12.6153 14.2772ZM15.5 17.2969H4.79358V14.5438L10.6403 16.1104C10.6702 16.1185 10.7008 16.1224 10.7313 16.1224C10.7925 16.1224 10.8532 16.1064 10.9071 16.0753L13.7018 14.4617C13.7826 14.4151 13.8415 14.3383 13.8656 14.2483L15.5 8.14857V17.2969H15.5Z" fill="#EE7B16"/>
<path d="M5.91429 6.63185L12.8599 8.49297C12.8904 8.50113 12.921 8.50506 12.9512 8.50506C13.1064 8.50506 13.2484 8.40146 13.2905 8.24438C13.3408 8.05685 13.2295 7.86409 13.0419 7.81382L6.0963 5.9527C5.90867 5.90239 5.71597 6.01373 5.6657 6.20129C5.61543 6.38882 5.72673 6.58161 5.91429 6.63185Z" fill="#EE7B16"/>
<path d="M5.54868 7.99636L12.4943 9.85747C12.5248 9.86563 12.5554 9.86956 12.5855 9.86956C12.7408 9.86956 12.8828 9.76596 12.9249 9.60888C12.9752 9.42136 12.8639 9.22859 12.6763 9.17832L5.73068 7.3172C5.54316 7.26689 5.35032 7.37823 5.30009 7.56579C5.24985 7.75332 5.36115 7.94608 5.54868 7.99636Z" fill="#EE7B16"/>
<path d="M7.30934 9.20259L5.36506 8.68164C5.1775 8.63133 4.98471 8.74267 4.93447 8.93023C4.88419 9.11776 4.9955 9.31052 5.18306 9.36079L7.12734 9.88174C7.15782 9.88989 7.18844 9.89383 7.21857 9.89383C7.37378 9.89383 7.51585 9.79022 7.55793 9.63315C7.60821 9.44562 7.4969 9.25286 7.30934 9.20259Z" fill="#EE7B16"/>
<path d="M8.7469 9.60022H8.74666C8.55249 9.60022 8.39523 9.75765 8.39523 9.95178C8.39523 10.1459 8.55273 10.3033 8.7469 10.3033C8.94107 10.3033 9.09846 10.1459 9.09846 9.95178C9.09846 9.75765 8.94107 9.60022 8.7469 9.60022Z" fill="#EE7B16"/>
</g>
<defs>
<clipPath id="clip0_505_1123">
<rect width="18" height="18" fill="white"/>
</clipPath>
</defs>
</svg>
