<svg width="169" height="34" viewBox="0 0 169 34" fill="none" xmlns="http://www.w3.org/2000/svg">
<rect x="101.4" width="67.6" height="33.0809" rx="2.15745" fill="#EF4665"/>
<path d="M108.656 26V6.14145H122.212V10.0395H113.456V14.112H121.349V18.0197H113.456V26H108.656ZM143.372 16.0707C143.372 18.2557 142.952 20.1077 142.112 21.6269C141.271 23.146 140.134 24.2999 138.699 25.0885C137.27 25.8772 135.667 26.2715 133.889 26.2715C132.105 26.2715 130.498 25.8739 129.07 25.0788C127.641 24.2837 126.507 23.1298 125.666 21.6172C124.832 20.098 124.416 18.2492 124.416 16.0707C124.416 13.8858 124.832 12.0337 125.666 10.5146C126.507 8.99547 127.641 7.84158 129.07 7.05293C130.498 6.26427 132.105 5.86995 133.889 5.86995C135.667 5.86995 137.27 6.26427 138.699 7.05293C140.134 7.84158 141.271 8.99547 142.112 10.5146C142.952 12.0337 143.372 13.8858 143.372 16.0707ZM138.466 16.0707C138.466 14.7779 138.282 13.6854 137.913 12.7933C137.551 11.9012 137.027 11.2257 136.342 10.7667C135.664 10.3077 134.846 10.0783 133.889 10.0783C132.939 10.0783 132.121 10.3077 131.436 10.7667C130.751 11.2257 130.224 11.9012 129.855 12.7933C129.493 13.6854 129.312 14.7779 129.312 16.0707C129.312 17.3636 129.493 18.4561 129.855 19.3482C130.224 20.2402 130.751 20.9158 131.436 21.3747C132.121 21.8337 132.939 22.0632 133.889 22.0632C134.846 22.0632 135.664 21.8337 136.342 21.3747C137.027 20.9158 137.551 20.2402 137.913 19.3482C138.282 18.4561 138.466 17.3636 138.466 16.0707ZM149.913 6.14145L153.539 12.4151H153.694L157.36 6.14145H162.731L156.739 16.0707L162.925 26H157.418L153.694 19.6585H153.539L149.816 26H144.347L150.504 16.0707L144.502 6.14145H149.913Z" fill="white"/>
<path d="M1.50297 26V6.14145H6.30276V22.102H14.5642V26H1.50297ZM35.0191 16.0707C35.0191 18.2557 34.5989 20.1077 33.7586 21.6269C32.9182 23.146 31.7805 24.2999 30.3454 25.0885C28.9167 25.8772 27.3136 26.2715 25.5359 26.2715C23.7517 26.2715 22.1453 25.8739 20.7167 25.0788C19.2881 24.2837 18.1536 23.1298 17.3132 21.6172C16.4793 20.098 16.0623 18.2492 16.0623 16.0707C16.0623 13.8858 16.4793 12.0337 17.3132 10.5146C18.1536 8.99547 19.2881 7.84158 20.7167 7.05293C22.1453 6.26427 23.7517 5.86995 25.5359 5.86995C27.3136 5.86995 28.9167 6.26427 30.3454 7.05293C31.7805 7.84158 32.9182 8.99547 33.7586 10.5146C34.5989 12.0337 35.0191 13.8858 35.0191 16.0707ZM30.1127 16.0707C30.1127 14.7779 29.9284 13.6854 29.56 12.7933C29.1979 11.9012 28.6743 11.2257 27.9891 10.7667C27.3104 10.3077 26.4926 10.0783 25.5359 10.0783C24.5856 10.0783 23.7679 10.3077 23.0827 10.7667C22.3974 11.2257 21.8706 11.9012 21.5021 12.7933C21.1401 13.6854 20.9591 14.7779 20.9591 16.0707C20.9591 17.3636 21.1401 18.4561 21.5021 19.3482C21.8706 20.2402 22.3974 20.9158 23.0827 21.3747C23.7679 21.8337 24.5856 22.0632 25.5359 22.0632C26.4926 22.0632 27.3104 21.8337 27.9891 21.3747C28.6743 20.9158 29.1979 20.2402 29.56 19.3482C29.9284 18.4561 30.1127 17.3636 30.1127 16.0707ZM55.8473 13.3363H50.999C50.9344 12.8385 50.8019 12.3893 50.6015 11.9885C50.4011 11.5877 50.136 11.2451 49.8064 10.9606C49.4767 10.6762 49.0856 10.4597 48.6331 10.311C48.187 10.1558 47.6925 10.0783 47.1495 10.0783C46.1863 10.0783 45.3556 10.3142 44.6575 10.7861C43.9658 11.258 43.4325 11.94 43.0576 12.8321C42.6891 13.7242 42.5049 14.8037 42.5049 16.0707C42.5049 17.3895 42.6923 18.4949 43.0673 19.3869C43.4487 20.2726 43.982 20.9416 44.6672 21.3941C45.3589 21.8402 46.1766 22.0632 47.1204 22.0632C47.6505 22.0632 48.1321 21.9953 48.5652 21.8596C49.0048 21.7238 49.3894 21.5267 49.7191 21.2681C50.0552 21.003 50.33 20.6831 50.5433 20.3081C50.7631 19.9267 50.915 19.4968 50.999 19.0185L55.8473 19.0476C55.7633 19.9267 55.5079 20.7929 55.0813 21.6462C54.6611 22.4995 54.0825 23.2785 53.3456 23.9831C52.6087 24.6813 51.7101 25.2372 50.65 25.6509C49.5963 26.0646 48.3874 26.2715 47.0235 26.2715C45.2264 26.2715 43.6167 25.8772 42.1946 25.0885C40.7789 24.2934 39.6605 23.1363 38.8396 21.6172C38.0186 20.098 37.6081 18.2492 37.6081 16.0707C37.6081 13.8858 38.025 12.0337 38.859 10.5146C39.6929 8.99547 40.8209 7.84158 42.2431 7.05293C43.6652 6.26427 45.2587 5.86995 47.0235 5.86995C48.2258 5.86995 49.3377 6.03802 50.3591 6.37417C51.3804 6.70385 52.279 7.18868 53.0547 7.82865C53.8304 8.46216 54.4607 9.24112 54.9455 10.1655C55.4304 11.0899 55.731 12.1469 55.8473 13.3363ZM62.3828 26H57.2242L63.9246 6.14145H70.3146L77.0149 26H71.8563L67.1923 11.1449H67.0371L62.3828 26ZM61.6943 18.1846H72.4769V21.8305H61.6943V18.1846ZM79.153 26V6.14145H83.9528V22.102H92.2143V26H79.153Z" fill="#475569"/>
</svg>
