<svg width="141" height="20" viewBox="0 0 141 20" fill="none" xmlns="http://www.w3.org/2000/svg">
<path d="M0.372077 19V0.870882H4.75387V15.4415H12.2959V19H0.372077ZM30.9694 9.93544C30.9694 11.9301 30.5858 13.6209 29.8186 15.0077C29.0514 16.3945 28.0128 17.4479 26.7027 18.1679C25.3985 18.8879 23.9349 19.2479 22.312 19.2479C20.6832 19.2479 19.2167 18.8849 17.9125 18.159C16.6083 17.4332 15.5726 16.3798 14.8054 14.9988C14.0442 13.612 13.6635 11.9242 13.6635 9.93544C13.6635 7.94077 14.0442 6.25001 14.8054 4.86318C15.5726 3.47635 16.6083 2.42295 17.9125 1.70298C19.2167 0.983009 20.6832 0.623023 22.312 0.623023C23.9349 0.623023 25.3985 0.983009 26.7027 1.70298C28.0128 2.42295 29.0514 3.47635 29.8186 4.86318C30.5858 6.25001 30.9694 7.94077 30.9694 9.93544ZM26.4902 9.93544C26.4902 8.75516 26.322 7.75782 25.9857 6.94343C25.6552 6.12903 25.1772 5.51234 24.5516 5.09334C23.932 4.67434 23.1854 4.46484 22.312 4.46484C21.4445 4.46484 20.698 4.67434 20.0724 5.09334C19.4469 5.51234 18.9659 6.12903 18.6295 6.94343C18.2991 7.75782 18.1338 8.75516 18.1338 9.93544C18.1338 11.1157 18.2991 12.1131 18.6295 12.9275C18.9659 13.7418 19.4469 14.3585 20.0724 14.7775C20.698 15.1965 21.4445 15.406 22.312 15.406C23.1854 15.406 23.932 15.1965 24.5516 14.7775C25.1772 14.3585 25.6552 13.7418 25.9857 12.9275C26.322 12.1131 26.4902 11.1157 26.4902 9.93544ZM49.9837 7.43915H45.5577C45.4986 6.98474 45.3777 6.57459 45.1947 6.2087C45.0118 5.84282 44.7698 5.53004 44.4689 5.27038C44.1679 5.01072 43.8108 4.81302 43.3977 4.67729C42.9906 4.53565 42.5391 4.46484 42.0434 4.46484C41.1641 4.46484 40.4057 4.68024 39.7684 5.11104C39.1369 5.54185 38.6501 6.16444 38.3078 6.97884C37.9714 7.79323 37.8032 8.77877 37.8032 9.93544C37.8032 11.1393 37.9744 12.1485 38.3166 12.9629C38.6648 13.7714 39.1517 14.3822 39.7772 14.7952C40.4087 15.2024 41.1552 15.406 42.0168 15.406C42.5007 15.406 42.9404 15.3441 43.3358 15.2201C43.7371 15.0962 44.0882 14.9162 44.3892 14.6802C44.6961 14.4382 44.9469 14.1461 45.1416 13.8038C45.3423 13.4556 45.4809 13.0632 45.5577 12.6265L49.9837 12.653C49.907 13.4556 49.6739 14.2464 49.2844 15.0254C48.9008 15.8044 48.3726 16.5155 47.6999 17.1588C47.0271 17.7961 46.2068 18.3036 45.239 18.6813C44.2771 19.059 43.1735 19.2479 41.9283 19.2479C40.2877 19.2479 38.8183 18.8879 37.5199 18.1679C36.2275 17.442 35.2066 16.3857 34.4571 14.9988C33.7076 13.612 33.3329 11.9242 33.3329 9.93544C33.3329 7.94077 33.7135 6.25001 34.4748 4.86318C35.2361 3.47635 36.2659 2.42295 37.5642 1.70298C38.8625 0.983009 40.3172 0.623023 41.9283 0.623023C43.026 0.623023 44.041 0.77646 44.9734 1.08333C45.9058 1.3843 46.7261 1.82691 47.4343 2.41115C48.1425 2.98949 48.7179 3.70061 49.1605 4.54451C49.6031 5.38841 49.8775 6.35329 49.9837 7.43915ZM55.95 19H51.2407L57.3575 0.870882H63.1911L69.3079 19H64.5985L60.3407 5.43857H60.199L55.95 19ZM55.3215 11.8652H65.1651V15.1936H55.3215V11.8652ZM71.2598 19V0.870882H75.6416V15.4415H83.1835V19H71.2598Z" fill="#475569"/>
<path d="M90.8074 19V0.870882H103.183V4.42943H95.1892V8.14732H102.395V11.7147H95.1892V19H90.8074ZM122.5 9.93544C122.5 11.9301 122.117 13.6209 121.349 15.0077C120.582 16.3945 119.544 17.4479 118.233 18.1679C116.929 18.8879 115.466 19.2479 113.843 19.2479C112.214 19.2479 110.748 18.8849 109.443 18.159C108.139 17.4332 107.103 16.3798 106.336 14.9988C105.575 13.612 105.194 11.9242 105.194 9.93544C105.194 7.94077 105.575 6.25001 106.336 4.86318C107.103 3.47635 108.139 2.42295 109.443 1.70298C110.748 0.983009 112.214 0.623023 113.843 0.623023C115.466 0.623023 116.929 0.983009 118.233 1.70298C119.544 2.42295 120.582 3.47635 121.349 4.86318C122.117 6.25001 122.5 7.94077 122.5 9.93544ZM118.021 9.93544C118.021 8.75516 117.853 7.75782 117.516 6.94343C117.186 6.12903 116.708 5.51234 116.082 5.09334C115.463 4.67434 114.716 4.46484 113.843 4.46484C112.975 4.46484 112.229 4.67434 111.603 5.09334C110.978 5.51234 110.497 6.12903 110.16 6.94343C109.83 7.75782 109.665 8.75516 109.665 9.93544C109.665 11.1157 109.83 12.1131 110.16 12.9275C110.497 13.7418 110.978 14.3585 111.603 14.7775C112.229 15.1965 112.975 15.406 113.843 15.406C114.716 15.406 115.463 15.1965 116.082 14.7775C116.708 14.3585 117.186 13.7418 117.516 12.9275C117.853 12.1131 118.021 11.1157 118.021 9.93544ZM128.471 0.870882L131.782 6.5982H131.923L135.269 0.870882H140.173L134.703 9.93544L140.35 19H135.322L131.923 13.2107H131.782L128.382 19H123.39L129.011 9.93544L123.531 0.870882H128.471Z" fill="#F43F5E"/>
</svg>
