<svg width="16" height="18" viewBox="0 0 16 18" fill="none" xmlns="http://www.w3.org/2000/svg">
<path d="M9.66668 7.33333L8.00001 8.16667M8.00001 8.16667L6.33334 7.33333M8.00001 8.16667V10.25M14.6667 4.83333L13 5.66667M14.6667 4.83333L13 4M14.6667 4.83333V6.91667M9.66668 2.33333L8.00001 1.5L6.33334 2.33333M1.33334 4.83333L3.00001 4M1.33334 4.83333L3.00001 5.66667M1.33334 4.83333V6.91667M8.00001 16.5L6.33334 15.6667M8.00001 16.5L9.66668 15.6667M8.00001 16.5V14.4167M3.00001 14L1.33334 13.1667V11.0833M13 14L14.6667 13.1667V11.0833" stroke="#EF4665" stroke-width="1.66667" stroke-linecap="round" stroke-linejoin="round"/>
</svg>
