<svg width="40" height="34" viewBox="0 0 40 34" fill="none" xmlns="http://www.w3.org/2000/svg">
<rect width="40" height="34" rx="5" fill="#2AA76B" fill-opacity="0.1"/>
<path d="M14.5 12.1667C14.5 11.2462 15.2462 10.5 16.1667 10.5H18.8994C19.2581 10.5 19.5765 10.7295 19.6899 11.0698L20.9381 14.8143C21.0693 15.2078 20.8911 15.6378 20.5202 15.8232L18.6392 16.7637C19.5577 18.801 21.199 20.4423 23.2363 21.3608L24.1768 19.4798C24.3622 19.1088 24.7922 18.9307 25.1857 19.0619L28.9302 20.3101C29.2705 20.4235 29.5 20.7419 29.5 21.1006V23.8333C29.5 24.7538 28.7538 25.5 27.8333 25.5H27C20.0964 25.5 14.5 19.9036 14.5 13V12.1667Z" stroke="#2AA76B" stroke-width="1.58333" stroke-linecap="round" stroke-linejoin="round"/>
</svg>
