<svg width="38" height="38" viewBox="0 0 38 38" fill="none" xmlns="http://www.w3.org/2000/svg">
<circle cx="19" cy="19" r="19" fill="#2AA76B" fill-opacity="0.2"/>
<g clip-path="url(#clip0_4_2306)">
<path d="M19 11C14.5885 11 11 14.5885 11 19C11 23.4115 14.5885 27 19 27C23.4115 27 27 23.4108 27 19C27 14.5892 23.4115 11 19 11ZM19 25.7607C15.2727 25.7607 12.2393 22.728 12.2393 19C12.2393 15.272 15.2727 12.2393 19 12.2393C22.728 12.2393 25.7607 15.272 25.7607 19C25.7607 22.728 22.7273 25.7607 19 25.7607Z" fill="#3E9269"/>
<path d="M22.6704 16.2175C22.4182 15.9883 22.0259 16.0062 21.7954 16.2597L18.0154 20.422L16.1892 18.5655C15.9481 18.3214 15.5565 18.3176 15.313 18.5581C15.0688 18.7979 15.0651 19.1901 15.3055 19.4343L17.5915 21.7581C17.7086 21.877 17.8672 21.9434 18.0333 21.9434C18.037 21.9434 18.0414 21.9434 18.0451 21.944C18.2161 21.9403 18.3772 21.8671 18.4919 21.7407L22.7125 17.0932C22.9424 16.8391 22.9238 16.4474 22.6704 16.2175Z" fill="#3E9269"/>
</g>
<defs>
<clipPath id="clip0_4_2306">
<rect width="16" height="16" fill="white" transform="translate(11 11)"/>
</clipPath>
</defs>
</svg>
