<svg width="38" height="38" viewBox="0 0 38 38" fill="none" xmlns="http://www.w3.org/2000/svg">
<circle cx="19" cy="19" r="19" fill="white"/>
<path d="M19 11.0312C14.606 11.0312 11.0312 14.606 11.0312 19C11.0312 23.394 14.606 26.9688 19 26.9688C23.394 26.9688 26.9688 23.394 26.9688 19C26.9688 14.606 23.394 11.0312 19 11.0312ZM19 26.0312C15.1229 26.0312 11.9688 22.8771 11.9688 19C11.9688 15.1229 15.1229 11.9688 19 11.9688C22.8771 11.9688 26.0312 15.1229 26.0312 19C26.0312 22.8771 22.8771 26.0312 19 26.0312Z" fill="#3E9269"/>
<path d="M22.6362 16.4349L18.5004 20.5707L16.3784 18.4488C16.1955 18.2657 15.8985 18.2657 15.7156 18.4488C15.5325 18.6318 15.5325 18.9286 15.7156 19.1117L18.169 21.565C18.2605 21.6566 18.3805 21.7023 18.5004 21.7023C18.6204 21.7023 18.7404 21.6566 18.8319 21.565L23.2991 17.0978C23.4822 16.9148 23.4822 16.6179 23.2991 16.4349C23.1162 16.2518 22.8192 16.2518 22.6362 16.4349Z" fill="#3E9269"/>
</svg>
