<svg width="17" height="17" viewBox="0 0 17 17" fill="none" xmlns="http://www.w3.org/2000/svg">
<path d="M8.45393 7.48367H9.2763C9.5488 7.48367 9.76972 7.26275 9.76972 6.99025C9.76972 6.71775 9.5488 6.49683 9.2763 6.49683H8.45393C8.18143 6.49683 7.96051 6.71775 7.96051 6.99025C7.96051 7.26275 8.18143 7.48367 8.45393 7.48367Z" fill="#2AA76B"/>
<path d="M6.34866 6.49683H5.52629C5.25379 6.49683 5.03287 6.71775 5.03287 6.99025C5.03287 7.26275 5.25379 7.48367 5.52629 7.48367H6.34866C6.62116 7.48367 6.84208 7.26275 6.84208 6.99025C6.84208 6.71775 6.62116 6.49683 6.34866 6.49683Z" fill="#2AA76B"/>
<path d="M11.3816 7.48367H12.2039C12.4764 7.48367 12.6974 7.26275 12.6974 6.99025C12.6974 6.71775 12.4764 6.49683 12.2039 6.49683H11.3816C11.1091 6.49683 10.8882 6.71775 10.8882 6.99025C10.8882 7.26275 11.1091 7.48367 11.3816 7.48367Z" fill="#2AA76B"/>
<path d="M3.42104 8.71704H2.59868C2.32618 8.71704 2.10526 8.93796 2.10526 9.21046C2.10526 9.48296 2.32618 9.70388 2.59868 9.70388H3.42104C3.69354 9.70388 3.91447 9.48296 3.91447 9.21046C3.91447 8.93796 3.69354 8.71704 3.42104 8.71704Z" fill="#2AA76B"/>
<path d="M6.34866 8.71704H5.52629C5.25379 8.71704 5.03287 8.93796 5.03287 9.21046C5.03287 9.48296 5.25379 9.70388 5.52629 9.70388H6.34866C6.62116 9.70388 6.84208 9.48296 6.84208 9.21046C6.84208 8.93796 6.62116 8.71704 6.34866 8.71704Z" fill="#2AA76B"/>
<path d="M9.76972 9.21046C9.76972 8.93796 9.5488 8.71704 9.2763 8.71704H8.45393C8.18143 8.71704 7.96051 8.93796 7.96051 9.21046C7.96051 9.48296 8.18143 9.70388 8.45393 9.70388H9.2763C9.5488 9.70388 9.76972 9.48296 9.76972 9.21046Z" fill="#2AA76B"/>
<path d="M3.42104 10.9375H2.59868C2.32618 10.9375 2.10526 11.1584 2.10526 11.4309C2.10526 11.7034 2.32618 11.9243 2.59868 11.9243H3.42104C3.69354 11.9243 3.91447 11.7034 3.91447 11.4309C3.91447 11.1584 3.69354 10.9375 3.42104 10.9375Z" fill="#2AA76B"/>
<path d="M6.34866 10.9375H5.52629C5.25379 10.9375 5.03287 11.1584 5.03287 11.4309C5.03287 11.7034 5.25379 11.9243 5.52629 11.9243H6.34866C6.62116 11.9243 6.84208 11.7034 6.84208 11.4309C6.84208 11.1584 6.62116 10.9375 6.34866 10.9375Z" fill="#2AA76B"/>
<path d="M14.8026 9.18013V2.79605C14.8026 1.79845 13.991 0.986842 12.9934 0.986842H12.0395V0.493421C12.0395 0.220921 11.8186 0 11.5461 0C11.2736 0 11.0526 0.220921 11.0526 0.493421V0.986842H9.27632V0.493421C9.27632 0.220921 9.0554 0 8.7829 0C8.5104 0 8.28947 0.220921 8.28947 0.493421V0.986842H6.51316V0.493421C6.51316 0.220921 6.29224 0 6.01974 0C5.74724 0 5.52632 0.220921 5.52632 0.493421V0.986842H3.75V0.493421C3.75 0.220921 3.52908 0 3.25658 0C2.98408 0 2.76316 0.220921 2.76316 0.493421V0.986842H1.80921C0.811612 0.986842 0 1.79845 0 2.79605V12.6645C0 13.4807 0.664046 14.1447 1.48026 14.1447H8.86915C9.44704 15.7173 10.9598 16.8421 12.7303 16.8421C14.9975 16.8421 16.8421 14.9975 16.8421 12.7303C16.8421 11.2183 16.0216 9.89444 14.8026 9.18013ZM0.986842 2.79605C0.986842 2.3426 1.35576 1.97368 1.80921 1.97368H2.76316V2.46711C2.76316 2.73961 2.98408 2.96053 3.25658 2.96053C3.52908 2.96053 3.75 2.73961 3.75 2.46711V1.97368H5.52632V2.46711C5.52632 2.73961 5.74724 2.96053 6.01974 2.96053C6.29224 2.96053 6.51316 2.73961 6.51316 2.46711V1.97368H8.28947V2.46711C8.28947 2.73961 8.5104 2.96053 8.7829 2.96053C9.0554 2.96053 9.27632 2.73961 9.27632 2.46711V1.97368H11.0526V2.46711C11.0526 2.73961 11.2736 2.96053 11.5461 2.96053C11.8186 2.96053 12.0395 2.73961 12.0395 2.46711V1.97368H12.9934C13.4469 1.97368 13.8158 2.3426 13.8158 2.79605V4.27632H0.986842V2.79605ZM1.48026 13.1579C1.20819 13.1579 0.986842 12.9365 0.986842 12.6645V5.26316H13.8158V8.76414C13.4698 8.66934 13.1059 8.61842 12.7303 8.61842C10.463 8.61842 8.61842 10.463 8.61842 12.7303C8.61842 12.8746 8.62599 13.0173 8.64059 13.1579H1.48026ZM12.7303 15.8553C11.0071 15.8553 9.60526 14.4534 9.60526 12.7303C9.60526 11.0071 11.0071 9.60526 12.7303 9.60526C14.4534 9.60526 15.8553 11.0071 15.8553 12.7303C15.8553 14.4534 14.4534 15.8553 12.7303 15.8553Z" fill="#2AA76B"/>
<path d="M14.375 12.2368H13.2237V11.0855C13.2237 10.813 13.0027 10.592 12.7302 10.592C12.4577 10.592 12.2368 10.813 12.2368 11.0855V12.7302C12.2368 13.0027 12.4577 13.2236 12.7302 13.2236H14.375C14.6475 13.2236 14.8684 13.0027 14.8684 12.7302C14.8684 12.4577 14.6475 12.2368 14.375 12.2368Z" fill="#2AA76B"/>
</svg>
