<svg width="16" height="21" viewBox="0 0 16 21" fill="none" xmlns="http://www.w3.org/2000/svg">
<path d="M15.2868 5.03202C15.2387 4.94029 15.1596 4.87336 15.0667 4.84597L12.3478 4.04338C12.3846 3.92634 12.4117 3.80482 12.429 3.68027C12.8393 3.53898 13.1816 3.23788 13.3979 2.82517C13.6262 2.38953 13.6868 1.88202 13.5686 1.39611C13.3247 0.393017 12.3853 -0.204349 11.475 0.0643635C10.8897 0.237156 10.457 0.726701 10.2871 1.32067C10.2185 1.33217 10.1504 1.34707 10.0834 1.36688C9.59827 1.51008 9.1928 1.85287 8.94164 2.33207C8.83566 2.53433 8.76291 2.75077 8.72354 2.97348L3.70394 1.49171C3.611 1.46423 3.51212 1.47865 3.42889 1.5316C3.34563 1.58455 3.28488 1.67177 3.26002 1.77408L0.0123605 15.127C-0.0125415 15.2293 0.000507586 15.3383 0.0485716 15.43C0.0966356 15.5217 0.1758 15.5886 0.268666 15.616L2.60582 16.306V20.0465C2.60582 20.267 2.7681 20.4458 2.9683 20.4458H14.7319C14.9321 20.4458 15.0944 20.267 15.0944 20.0465V6.27511L15.323 5.33503C15.3479 5.23276 15.3349 5.12374 15.2868 5.03202ZM11.6626 0.83584C12.1871 0.681297 12.7279 1.02512 12.8684 1.6028C12.9364 1.88266 12.9015 2.17497 12.7701 2.42583C12.6386 2.67674 12.4262 2.8562 12.1722 2.93119C11.9182 3.00611 11.6529 2.96769 11.4252 2.82285C11.1974 2.67797 11.0345 2.44412 10.9665 2.16427C10.826 1.58659 11.1382 0.990662 11.6626 0.83584ZM9.56945 2.73144C9.71589 2.45199 9.9478 2.24833 10.2259 2.15301C10.2355 2.22565 10.2485 2.29841 10.2662 2.37096C10.3844 2.85688 10.6672 3.263 11.0627 3.51454C11.2538 3.6361 11.4602 3.71389 11.6722 3.74779C11.556 4.15508 11.2581 4.48265 10.8691 4.59746C10.2538 4.77904 9.61893 4.37531 9.454 3.69736C9.37415 3.36894 9.41514 3.02591 9.56945 2.73144ZM3.86643 2.36649L8.73155 3.8027C8.73819 3.83657 8.74558 3.87035 8.75377 3.90405C8.80887 4.13064 8.89641 4.33829 9.0091 4.52282L8.62923 4.94133C8.48768 5.09727 8.48768 5.35013 8.62923 5.50611C8.70002 5.58406 8.79278 5.62307 8.88553 5.62307C8.97829 5.62307 9.07108 5.58406 9.14184 5.50611L9.52254 5.08668C9.82815 5.31243 10.1921 5.43974 10.5705 5.43974C10.7311 5.43974 10.8944 5.41685 11.0568 5.36893C11.4155 5.26303 11.7271 5.04595 11.9642 4.75699L14.5289 5.51405L12.0779 15.5918L10.1555 15.0243C9.96208 14.9672 9.7633 15.0936 9.7115 15.3067L9.19639 17.4246L0.806431 14.948L3.86643 2.36649ZM11.3952 16.2171L10.0294 17.0858L10.318 15.8991L11.3952 16.2171ZM14.3694 19.6472H3.33077V16.52L9.35889 18.2995C9.38977 18.3086 9.42131 18.3131 9.4527 18.3131C9.5158 18.3131 9.57837 18.2949 9.63393 18.2596L12.5154 16.4268C12.5987 16.3738 12.6594 16.2866 12.6843 16.1843L14.3694 9.25579V19.6472H14.3694Z" fill="#F2994A"/>
<path d="M4.48616 7.53297L11.6473 9.64697C11.6787 9.65623 11.7103 9.66071 11.7414 9.66071C11.9014 9.66071 12.0479 9.54302 12.0913 9.3646C12.1431 9.15159 12.0283 8.93264 11.835 8.87553L4.67381 6.76153C4.48036 6.70439 4.28169 6.83086 4.22986 7.0439C4.17802 7.25691 4.29278 7.4759 4.48616 7.53297Z" fill="#F2994A"/>
<path d="M4.10932 9.08277L11.2705 11.1968C11.3019 11.206 11.3335 11.2105 11.3645 11.2105C11.5245 11.2105 11.671 11.0928 11.7144 10.9144C11.7662 10.7014 11.6515 10.4824 11.4581 10.4253L4.29697 8.31134C4.10362 8.25419 3.90481 8.38066 3.85301 8.59371C3.80121 8.80671 3.91597 9.02567 4.10932 9.08277Z" fill="#F2994A"/>
<path d="M5.92464 10.4531L3.92003 9.86138C3.72665 9.80424 3.52787 9.93071 3.47607 10.1438C3.42424 10.3568 3.539 10.5757 3.73238 10.6328L5.73698 11.2245C5.76841 11.2338 5.79998 11.2383 5.83105 11.2383C5.99108 11.2383 6.13755 11.1206 6.18094 10.9422C6.23277 10.7292 6.11801 10.5102 5.92464 10.4531Z" fill="#F2994A"/>
<path d="M7.40689 10.9048H7.40664C7.20644 10.9048 7.04431 11.0836 7.04431 11.3041C7.04431 11.5246 7.2067 11.7034 7.40689 11.7034C7.60708 11.7034 7.76936 11.5246 7.76936 11.3041C7.76936 11.0836 7.60708 10.9048 7.40689 10.9048Z" fill="#F2994A"/>
</svg>
