<svg width="38" height="38" viewBox="0 0 38 38" fill="none" xmlns="http://www.w3.org/2000/svg">
<circle cx="19" cy="18.9983" r="19" fill="white"/>
<g clip-path="url(#clip0_501_662)">
<path d="M22.2025 28.5499C22.1888 28.5499 22.1754 28.5492 22.1617 28.5478C19.5885 28.2715 16.8192 26.8197 14.564 24.5647C12.0772 22.0778 10.5705 18.9509 10.534 16.2005C10.5333 16.1545 10.5412 16.1086 10.5567 16.0653C10.6327 15.8475 10.7254 15.6311 10.8324 15.4222C11.3083 14.5028 12.0584 13.7644 12.9453 13.3419C12.9458 13.3416 12.9717 13.3294 12.972 13.3292C13.7017 12.9854 14.6 13.1722 15.1565 13.7839C15.7911 14.4817 16.2774 15.1291 16.7823 15.9485C17.21 16.6427 17.1435 17.5267 16.6171 18.1482C16.4203 18.3806 16.2232 18.5954 16.0146 18.8047C15.627 19.1938 15.5878 19.8217 15.9238 20.2651C16.3362 20.8098 16.7974 21.3377 17.2941 21.8348C17.6929 22.2334 18.1133 22.6103 18.5434 22.955C18.9742 23.3001 19.6003 23.2811 19.9996 22.9105C20.2132 22.7122 20.4319 22.5253 20.6679 22.339C21.3066 21.8346 22.1922 21.7987 22.8715 22.2502C23.6733 22.7833 24.3038 23.2923 24.9797 23.9523C25.5789 24.5369 25.7308 25.4213 25.3574 26.1525L25.3345 26.1968C24.8766 27.0615 24.1163 27.7773 23.1925 28.215C22.9109 28.3495 22.6092 28.4583 22.2968 28.5383C22.2659 28.546 22.2342 28.5499 22.2025 28.5499ZM11.2973 16.2581C11.3535 18.7947 12.7725 21.6952 15.1031 24.0256C17.2169 26.1395 19.79 27.5056 22.1741 27.7822C22.4148 27.7166 22.647 27.6309 22.865 27.5267C23.6424 27.1584 24.2794 26.5604 24.6595 25.8429L24.6797 25.8035C24.8957 25.3805 24.8008 24.8425 24.4474 24.4978C23.8071 23.8727 23.2096 23.3903 22.4494 22.885C22.0458 22.6164 21.5195 22.638 21.1402 22.9371C20.9201 23.1108 20.7167 23.2848 20.5182 23.4692C19.8442 24.0944 18.7904 24.1298 18.0668 23.5498C17.6149 23.1877 17.1736 22.792 16.7552 22.3737C16.2336 21.8522 15.7496 21.2976 15.3163 20.7254C14.7521 19.9807 14.8201 18.9236 15.4748 18.2666C15.6686 18.072 15.8521 17.8721 16.0355 17.6555C16.3483 17.2864 16.3875 16.7609 16.1333 16.3483C15.6546 15.5712 15.1939 14.9577 14.5926 14.2968C14.2594 13.9307 13.727 13.816 13.2971 14.0186L13.1092 13.6859L13.2731 14.0299C12.5354 14.3814 11.9092 14.9997 11.5101 15.771C11.4293 15.9289 11.3575 16.0928 11.2973 16.2581Z" fill="#148D53"/>
<path d="M26.7416 20.9093C26.7017 20.9093 26.6613 20.9029 26.6214 20.8898C26.4217 20.8233 26.3136 20.6077 26.3799 20.4079C27.1295 18.1535 26.5544 15.7122 24.8791 14.0371C23.2039 12.3619 20.7628 11.7861 18.5082 12.5362C18.3075 12.6018 18.0926 12.4944 18.0261 12.2949C17.9598 12.0951 18.0678 11.8793 18.2675 11.8128C20.7975 10.9719 23.5374 11.6172 25.4181 13.4982C27.2986 15.3785 27.9444 18.1184 27.1033 20.6482C27.0501 20.8081 26.9012 20.9093 26.7416 20.9093Z" fill="#148D53"/>
<path d="M24.2409 20.0749C24.201 20.0749 24.1604 20.0685 24.1204 20.0552C23.9206 19.9888 23.8127 19.7729 23.8793 19.5732C24.3123 18.2741 23.9811 16.867 23.015 15.9011C22.0488 14.9347 20.6415 14.6032 19.3428 15.0366C19.142 15.1033 18.9272 14.9952 18.8608 14.7956C18.7941 14.5959 18.9021 14.38 19.1018 14.3136C20.6759 13.7885 22.3822 14.1904 23.554 15.3622C24.7254 16.5335 25.1274 18.2394 24.6024 19.8142C24.5493 19.9739 24.4006 20.0749 24.2409 20.0749Z" fill="#148D53"/>
</g>
<defs>
<clipPath id="clip0_501_662">
<rect width="18" height="18" fill="white" transform="translate(10 11)"/>
</clipPath>
</defs>
</svg>
