<svg width="38" height="38" viewBox="0 0 38 38" fill="none" xmlns="http://www.w3.org/2000/svg">
<circle cx="19" cy="18.9983" r="19" fill="#B34DE2" fill-opacity="0.2"/>
<g clip-path="url(#clip0_4_2203)">
<path d="M23.6451 20.9098C23.3176 20.5687 22.9225 20.3864 22.5037 20.3864C22.0884 20.3864 21.6899 20.5653 21.3488 20.9064L20.2817 21.9701C20.1939 21.9229 20.1061 21.879 20.0217 21.8351C19.9001 21.7743 19.7853 21.7169 19.6874 21.6561C18.6878 21.0212 17.7794 20.1939 16.9082 19.1234C16.4861 18.5898 16.2024 18.1407 15.9964 17.6848C16.2733 17.4316 16.53 17.1682 16.7799 16.9149C16.8744 16.8203 16.969 16.7224 17.0635 16.6279C17.7727 15.9187 17.7727 15.0002 17.0635 14.291L16.1416 13.3691C16.0369 13.2645 15.9289 13.1564 15.8276 13.0483C15.625 12.839 15.4122 12.6228 15.1927 12.4202C14.8652 12.0961 14.4734 11.9238 14.0615 11.9238C13.6495 11.9238 13.251 12.0961 12.9133 12.4202C12.9099 12.4236 12.9099 12.4236 12.9066 12.427L11.7584 13.5853C11.3262 14.0175 11.0796 14.5443 11.0256 15.1555C10.9446 16.1416 11.235 17.0601 11.4579 17.6612C12.0049 19.1369 12.8221 20.5046 14.0412 21.9701C15.5203 23.7363 17.2999 25.1309 19.3328 26.1136C20.1095 26.4817 21.1462 26.9173 22.3045 26.9916C22.3754 26.995 22.4497 26.9984 22.5172 26.9984C23.2973 26.9984 23.9524 26.7181 24.4657 26.1609C24.4691 26.1541 24.4758 26.1507 24.4792 26.144C24.6548 25.9312 24.8574 25.7388 25.0702 25.5328C25.2154 25.3943 25.364 25.2491 25.5092 25.0972C25.8435 24.7493 26.0191 24.3441 26.0191 23.9287C26.0191 23.51 25.8401 23.1082 25.499 22.7705L23.6451 20.9098ZM24.8541 24.4657C24.8507 24.4657 24.8507 24.469 24.8541 24.4657C24.7224 24.6075 24.5873 24.7358 24.4421 24.8777C24.2226 25.087 23.9997 25.3065 23.7903 25.553C23.4493 25.9177 23.0474 26.09 22.5206 26.09C22.47 26.09 22.4159 26.09 22.3653 26.0866C21.3623 26.0224 20.4303 25.6307 19.7313 25.2964C17.82 24.3711 16.1416 23.0575 14.747 21.3927C13.5954 20.0048 12.8255 18.7215 12.3156 17.3438C12.0015 16.5029 11.8867 15.8478 11.9374 15.2298C11.9711 14.8347 12.1231 14.5072 12.4034 14.2269L13.5549 13.0754C13.7204 12.92 13.896 12.8356 14.0682 12.8356C14.281 12.8356 14.4532 12.9639 14.5612 13.072C14.5646 13.0754 14.568 13.0787 14.5714 13.0821C14.7774 13.2746 14.9732 13.4738 15.1792 13.6866C15.2839 13.7946 15.392 13.9027 15.5 14.0141L16.4219 14.936C16.7799 15.294 16.7799 15.6249 16.4219 15.9829C16.324 16.0808 16.2294 16.1787 16.1315 16.2733C15.8478 16.5637 15.5777 16.8339 15.2839 17.0973C15.2771 17.104 15.2704 17.1074 15.267 17.1141C14.9766 17.4046 15.0306 17.6882 15.0914 17.8807C15.0948 17.8908 15.0982 17.901 15.1015 17.9111C15.3413 18.4919 15.679 19.039 16.1923 19.6907L16.1957 19.6941C17.1277 20.8422 18.1104 21.7371 19.1944 22.4226C19.3328 22.5104 19.4746 22.5814 19.6097 22.6489C19.7313 22.7097 19.8461 22.7671 19.944 22.8279C19.9575 22.8346 19.971 22.8448 19.9846 22.8515C20.0994 22.9089 20.2074 22.9359 20.3189 22.9359C20.5992 22.9359 20.7748 22.7603 20.8322 22.7029L21.9871 21.548C22.1019 21.4332 22.2842 21.2948 22.497 21.2948C22.7063 21.2948 22.8786 21.4265 22.9832 21.5413C22.9866 21.5446 22.9866 21.5446 22.99 21.548L24.8507 23.4087C25.1985 23.7531 25.1985 24.1077 24.8541 24.4657Z" fill="#B34DE2"/>
<path d="M19.6468 14.8043C20.5316 14.9528 21.3353 15.3716 21.9769 16.0132C22.6185 16.6548 23.0339 17.4585 23.1858 18.3433C23.223 18.5661 23.4155 18.7215 23.635 18.7215C23.662 18.7215 23.6856 18.7181 23.7126 18.7147C23.9625 18.6742 24.128 18.4378 24.0875 18.1879C23.9051 17.1174 23.3986 16.1415 22.6253 15.3682C21.852 14.5949 20.876 14.0884 19.8056 13.906C19.5557 13.8655 19.3227 14.031 19.2788 14.2775C19.2349 14.524 19.3969 14.7637 19.6468 14.8043Z" fill="#B34DE2"/>
<path d="M26.9814 18.0562C26.6809 16.2935 25.8502 14.6894 24.5737 13.413C23.2972 12.1365 21.6932 11.3058 19.9304 11.0052C19.6839 10.9613 19.4509 11.1302 19.407 11.3767C19.3665 11.6266 19.532 11.8596 19.7818 11.9035C21.3555 12.1703 22.7907 12.9166 23.9321 14.0546C25.0735 15.196 25.8164 16.6312 26.0832 18.2048C26.1203 18.4277 26.3128 18.583 26.5323 18.583C26.5593 18.583 26.5829 18.5796 26.61 18.5763C26.8565 18.5391 27.0253 18.3027 26.9814 18.0562Z" fill="#B34DE2"/>
</g>
<defs>
<clipPath id="clip0_4_2203">
<rect width="16" height="16" fill="white" transform="translate(11 10.9983)"/>
</clipPath>
</defs>
</svg>
