<svg width="18" height="18" viewBox="0 0 18 18" fill="none" xmlns="http://www.w3.org/2000/svg">
<g clip-path="url(#clip0_505_1101)">
<path d="M13.7922 2.98414C13.8001 2.98471 13.8079 2.98528 13.8159 2.98528C13.8294 2.98528 13.8429 2.98414 13.8562 2.98229C14.2106 2.98955 14.4942 3.27862 14.4947 3.63304C14.4947 3.79409 14.6252 3.92467 14.7863 3.92467C14.9473 3.92467 15.0779 3.79409 15.0779 3.63304C15.0772 3.05335 14.6737 2.55183 14.1075 2.42709V2.14685C14.1075 1.9858 13.9769 1.85522 13.8159 1.85522C13.6548 1.85522 13.5242 1.9858 13.5242 2.14685V2.44033C12.9256 2.60039 12.5383 3.17951 12.619 3.79395C12.6998 4.40839 13.2235 4.86776 13.8432 4.86776C14.203 4.86776 14.4947 5.15953 14.4947 5.51937C14.4947 5.87906 14.203 6.17083 13.8432 6.17083C13.4834 6.17083 13.1917 5.87906 13.1917 5.51937C13.1917 5.35832 13.0612 5.22774 12.9001 5.22774C12.7391 5.22774 12.6085 5.35832 12.6085 5.51937C12.6092 6.07813 12.9845 6.56698 13.5242 6.71208V7.03162C13.5242 7.19267 13.6548 7.32325 13.8159 7.32325C13.9769 7.32325 14.1075 7.19267 14.1075 7.03162V6.72547C14.7233 6.59062 15.1387 6.01334 15.0708 5.38651C15.003 4.75968 14.4737 4.28465 13.8432 4.28479C13.4933 4.28493 13.2058 4.00869 13.192 3.6591C13.1783 3.30952 13.4433 3.01148 13.7922 2.98429V2.98414Z" fill="#DB5DE6"/>
<path d="M13.8599 0.429443C12.0658 0.429443 10.5348 1.60008 9.9612 3.16758H2.72305C2.56271 3.16758 2.43256 3.31212 2.43142 3.47231L2.3625 13.7026H0.299317C0.138267 13.7026 0 13.8193 0 13.9806V15.2788C0.00370229 16.501 0.966302 17.5051 2.18721 17.5603V17.5667H11.1912V17.5582C11.2641 17.5609 11.2942 17.5667 11.3403 17.5667H11.3466C12.6102 17.5647 13.6336 16.5397 13.6336 15.2761V8.71222C13.7065 8.7162 13.7837 8.71834 13.8592 8.71834C16.1422 8.71834 18 6.85693 18 4.57375C18 2.29071 16.1431 0.429443 13.8599 0.429443ZM2.29814 16.9835H2.29628C1.35291 16.9822 0.587528 16.2194 0.583256 15.2758V14.2859H9.04046V15.2717C9.04089 15.8803 9.28396 16.4637 9.71571 16.8927C9.74632 16.9234 9.78434 16.947 9.81638 16.9835H2.29814ZM13.0503 15.2758C13.0505 16.2176 12.288 16.9816 11.3463 16.9835H11.3407C10.3952 16.9817 9.62842 16.2174 9.62372 15.272V13.9806C9.62614 13.906 9.59766 13.8338 9.54483 13.7811C9.492 13.7284 9.41981 13.7001 9.34534 13.7026H2.94576L3.01268 3.75084H9.7993C9.74761 4.01783 9.72083 4.28896 9.71941 4.56079C9.71884 5.13564 9.83874 5.70409 10.0714 6.22968H7.3169C7.15571 6.22968 7.02527 6.36025 7.02527 6.5213C7.02527 6.68235 7.15571 6.81293 7.3169 6.81293H10.3878C10.9894 7.75901 11.9512 8.41859 13.0503 8.63931V15.2758ZM13.8599 8.13523C11.8954 8.13523 10.3027 6.54266 10.3028 4.57802C10.3028 2.61338 11.8954 1.02082 13.86 1.02082C15.8245 1.02082 17.4171 2.61352 17.4171 4.57802C17.4149 6.54167 15.8237 8.13309 13.8599 8.13523Z" fill="#DB5DE6"/>
<path d="M5.44494 8.17053C4.93018 8.17053 4.51154 8.57593 4.51154 9.07432C4.51154 9.57271 4.93018 9.97811 5.44494 9.97811C5.95971 9.97811 6.37849 9.57271 6.37849 9.07432C6.37849 8.57593 5.95971 8.17053 5.44494 8.17053ZM5.44494 9.39486C5.25171 9.39486 5.09479 9.25104 5.09479 9.07432C5.09479 8.89747 5.25185 8.75379 5.44494 8.75379C5.63803 8.75379 5.79524 8.89761 5.79524 9.07432C5.79524 9.25104 5.63803 9.39486 5.44494 9.39486Z" fill="#DB5DE6"/>
<path d="M7.02527 9.073C7.02527 9.23405 7.1557 9.36463 7.3169 9.36463H11.2049C11.3659 9.36463 11.4965 9.23405 11.4965 9.073C11.4965 8.91195 11.3659 8.78137 11.2049 8.78137H7.3169C7.1557 8.78137 7.02527 8.91195 7.02527 9.073Z" fill="#DB5DE6"/>
<path d="M5.44494 5.6355C4.93018 5.6355 4.51154 6.04104 4.51154 6.53943C4.51154 7.03782 4.93018 7.44322 5.44494 7.44322C5.95971 7.44322 6.37849 7.03782 6.37849 6.53943C6.37849 6.04104 5.95971 5.6355 5.44494 5.6355ZM5.44494 6.85996C5.25171 6.85996 5.09479 6.71614 5.09479 6.53943C5.09479 6.36272 5.25185 6.21875 5.44494 6.21875C5.63803 6.21875 5.79524 6.36257 5.79524 6.53943C5.79524 6.71614 5.63803 6.86011 5.44494 6.86011V6.85996Z" fill="#DB5DE6"/>
<path d="M5.44494 10.7053C4.93018 10.7053 4.51154 11.1107 4.51154 11.6091C4.51154 12.1075 4.93018 12.5129 5.44494 12.5129C5.95971 12.5129 6.37849 12.1075 6.37849 11.6091C6.37849 11.1107 5.95971 10.7053 5.44494 10.7053ZM5.44494 11.9296C5.25171 11.9296 5.09479 11.786 5.09479 11.6091C5.09479 11.4324 5.25185 11.2886 5.44494 11.2886C5.63803 11.2886 5.79524 11.4324 5.79524 11.6091C5.79524 11.7858 5.63803 11.9296 5.44494 11.9296Z" fill="#DB5DE6"/>
<path d="M11.2049 11.3331H7.3169C7.1557 11.3331 7.02527 11.4637 7.02527 11.6248C7.02527 11.7858 7.1557 11.9164 7.3169 11.9164H11.2049C11.3659 11.9164 11.4965 11.7858 11.4965 11.6248C11.4965 11.4637 11.3659 11.3331 11.2049 11.3331Z" fill="#DB5DE6"/>
</g>
<defs>
<clipPath id="clip0_505_1101">
<rect width="18" height="18" fill="white"/>
</clipPath>
</defs>
</svg>
