<svg width="20" height="18" viewBox="0 0 20 18" fill="none" xmlns="http://www.w3.org/2000/svg">
<path fill-rule="evenodd" clip-rule="evenodd" d="M19.7742 15.3889L11.444 0.944417C10.8051 -0.166694 9.19737 -0.166694 8.55498 0.944417L0.22477 15.3889C-0.414146 16.4965 0.384499 17.8889 1.66927 17.8889H18.3332C19.611 17.8889 20.4166 16.5 19.7742 15.3889ZM10.6141 5.66664H9.3814C9.26334 5.66664 9.16959 5.76386 9.17306 5.88192L9.43349 12.6875C9.43696 12.8021 9.53071 12.8889 9.64183 12.8889H10.3537C10.4648 12.8889 10.5585 12.7986 10.562 12.6875L10.8224 5.88192C10.8259 5.76386 10.7322 5.66664 10.6141 5.66664ZM9.02722 14.5555C9.02722 14.0173 9.46127 13.5833 9.99948 13.5833C10.5377 13.5833 10.9717 14.0173 10.9717 14.5555C10.9717 15.0937 10.5377 15.5278 9.99948 15.5278C9.46127 15.5278 9.02722 15.0937 9.02722 14.5555ZM1.6658 16.7778H18.3332C18.7603 16.7778 19.0276 16.3125 18.8123 15.9444L10.4787 1.49997C10.2669 1.12845 9.72864 1.13192 9.51682 1.49997L1.18314 15.9444C0.971328 16.3159 1.2387 16.7778 1.6658 16.7778Z" fill="#F43F5E"/>
</svg>
