<svg width="16" height="16" viewBox="0 0 16 16" fill="none" xmlns="http://www.w3.org/2000/svg">
<path d="M12.1667 9.66659V14.6666M9.66668 12.1666H14.6667M3.00001 6.33325H4.66668C5.58715 6.33325 6.33334 5.58706 6.33334 4.66659V2.99992C6.33334 2.07944 5.58715 1.33325 4.66668 1.33325H3.00001C2.07954 1.33325 1.33334 2.07944 1.33334 2.99992V4.66659C1.33334 5.58706 2.07954 6.33325 3.00001 6.33325ZM11.3333 6.33325H13C13.9205 6.33325 14.6667 5.58706 14.6667 4.66659V2.99992C14.6667 2.07944 13.9205 1.33325 13 1.33325H11.3333C10.4129 1.33325 9.66668 2.07944 9.66668 2.99992V4.66659C9.66668 5.58706 10.4129 6.33325 11.3333 6.33325ZM3.00001 14.6666H4.66668C5.58715 14.6666 6.33334 13.9204 6.33334 12.9999V11.3333C6.33334 10.4128 5.58715 9.66659 4.66668 9.66659H3.00001C2.07954 9.66659 1.33334 10.4128 1.33334 11.3333V12.9999C1.33334 13.9204 2.07954 14.6666 3.00001 14.6666Z" stroke="#9B51E0" stroke-width="2" stroke-linecap="round" stroke-linejoin="round"/>
</svg>
