<svg width="20" height="20" viewBox="0 0 20 20" fill="none" xmlns="http://www.w3.org/2000/svg">
<path d="M14.9851 15.6042C14.4028 14.8332 13.6494 14.208 12.7844 13.7778C11.9193 13.3476 10.9662 13.1241 10.0001 13.125C9.03392 13.1241 8.08079 13.3476 7.21573 13.7778C6.35068 14.208 5.59734 14.8332 5.01505 15.6042M14.9851 15.6042C16.1213 14.5935 16.9226 13.2613 17.2844 11.7842C17.6461 10.3072 17.5503 8.75507 17.0096 7.33373C16.4689 5.91239 15.509 4.68898 14.257 3.82575C13.0051 2.96251 11.5203 2.50024 9.99964 2.50024C8.47894 2.50024 6.99416 2.96251 5.74222 3.82575C4.49028 4.68898 3.53033 5.91239 2.98966 7.33373C2.449 8.75507 2.35318 10.3072 2.7149 11.7842C3.07662 13.2613 3.8788 14.5935 5.01505 15.6042M14.9851 15.6042C13.6134 16.8276 11.8381 17.5026 10.0001 17.5C8.16174 17.5028 6.38691 16.8278 5.01505 15.6042M12.5001 8.125C12.5001 8.78804 12.2367 9.42393 11.7678 9.89277C11.299 10.3616 10.6631 10.625 10.0001 10.625C9.33701 10.625 8.70113 10.3616 8.23228 9.89277C7.76344 9.42393 7.50005 8.78804 7.50005 8.125C7.50005 7.46196 7.76344 6.82607 8.23228 6.35723C8.70113 5.88839 9.33701 5.625 10.0001 5.625C10.6631 5.625 11.299 5.88839 11.7678 6.35723C12.2367 6.82607 12.5001 7.46196 12.5001 8.125Z" stroke="#0D9FCD" stroke-width="1.25" stroke-linecap="round" stroke-linejoin="round"/>
</svg>
