<svg width="18" height="16" viewBox="0 0 18 16" fill="none" xmlns="http://www.w3.org/2000/svg">
<path d="M14.8333 14.6666H3.16667C2.24619 14.6666 1.5 13.9204 1.5 12.9999L1.5 2.99992C1.5 2.07944 2.24619 1.33325 3.16667 1.33325L11.5 1.33325C12.4205 1.33325 13.1667 2.07944 13.1667 2.99992V3.83325M14.8333 14.6666C13.9129 14.6666 13.1667 13.9204 13.1667 12.9999L13.1667 3.83325M14.8333 14.6666C15.7538 14.6666 16.5 13.9204 16.5 12.9999V5.49992C16.5 4.57944 15.7538 3.83325 14.8333 3.83325L13.1667 3.83325M9.83333 1.33325L6.5 1.33325M4.83333 11.3333H9.83333M4.83333 4.66659H9.83333V7.99992H4.83333V4.66659Z" stroke="#219653" stroke-width="1.75" stroke-linecap="round" stroke-linejoin="round"/>
</svg>
