<svg width="40" height="34" viewBox="0 0 40 34" fill="none" xmlns="http://www.w3.org/2000/svg">
<rect width="40" height="34" rx="5" fill="#B34DE2" fill-opacity="0.2"/>
<path d="M24.1113 20.8807C23.346 21.6651 21.7417 23.3095 20.6455 24.4331C20.0242 25.07 19.0007 25.0705 18.3793 24.4336C17.3022 23.3295 15.729 21.7169 14.9131 20.8807C12.3731 18.2772 12.3731 14.0561 14.9131 11.4526C17.4531 8.84913 21.5713 8.84913 24.1113 11.4526C26.6513 14.0561 26.6513 18.2772 24.1113 20.8807Z" stroke="#B34DE2" stroke-width="1.58333" stroke-linecap="round" stroke-linejoin="round"/>
<path d="M21.9512 16.1667C21.9512 17.5474 20.8592 18.6667 19.5122 18.6667C18.1652 18.6667 17.0732 17.5474 17.0732 16.1667C17.0732 14.786 18.1652 13.6667 19.5122 13.6667C20.8592 13.6667 21.9512 14.786 21.9512 16.1667Z" stroke="#B34DE2" stroke-width="1.58333" stroke-linecap="round" stroke-linejoin="round"/>
</svg>
