<svg width="18" height="16" viewBox="0 0 18 16" fill="none" xmlns="http://www.w3.org/2000/svg">
<path fill-rule="evenodd" clip-rule="evenodd" d="M17.7968 13.75L10.2996 0.75C9.72456 -0.25 8.27763 -0.25 7.69948 0.75L0.202293 13.75C-0.372731 14.7469 0.346049 16 1.50235 16H16.4998C17.6499 16 18.3749 14.75 17.7968 13.75ZM9.55268 5H8.44326C8.33701 5 8.25263 5.0875 8.25575 5.19375L8.49014 11.3188C8.49326 11.4219 8.57764 11.5 8.67765 11.5H9.3183C9.4183 11.5 9.50268 11.4187 9.50581 11.3188L9.74019 5.19375C9.74331 5.0875 9.65894 5 9.55268 5ZM8.1245 13C8.1245 12.5156 8.51514 12.125 8.99953 12.125C9.48393 12.125 9.87457 12.5156 9.87457 13C9.87457 13.4844 9.48393 13.875 8.99953 13.875C8.51514 13.875 8.1245 13.4844 8.1245 13ZM1.49922 15H16.4998C16.8842 15 17.1249 14.5813 16.9311 14.25L9.4308 1.25C9.24017 0.915625 8.75577 0.91875 8.56514 1.25L1.06483 14.25C0.874196 14.5844 1.11483 15 1.49922 15Z" fill="#721C24"/>
</svg>
