<svg width="20" height="21" viewBox="0 0 20 21" fill="none" xmlns="http://www.w3.org/2000/svg">
<path d="M16.1912 12.9838C15.9585 12.7511 15.6622 12.5925 15.3396 12.528L13.3499 12.1301C12.2597 11.912 11.1278 12.0636 10.1333 12.5608L9.86881 12.6931C8.87432 13.1903 7.74245 13.3419 6.65216 13.1239L5.04237 12.8019C4.49594 12.6926 3.93104 12.8636 3.537 13.2577M6.66772 3.4603H13.3344L12.5011 4.29363V8.60327C12.5011 9.0453 12.6766 9.46923 12.9892 9.78179L17.1559 13.9485C18.2058 14.9984 17.4622 16.7936 15.9774 16.7936H4.02474C2.5399 16.7936 1.79629 14.9984 2.84623 13.9485L7.0129 9.78179C7.32546 9.46922 7.50105 9.0453 7.50105 8.60327V4.29363L6.66772 3.4603Z" stroke="#94A3B8" stroke-width="1.77696" stroke-linecap="round" stroke-linejoin="round"/>
</svg>
