<svg width="38" height="38" viewBox="0 0 38 38" fill="none" xmlns="http://www.w3.org/2000/svg">
<circle cx="19" cy="19" r="19" fill="white"/>
<g clip-path="url(#clip0_503_883)">
<path d="M23.7922 12.9841C23.8001 12.9847 23.8079 12.9853 23.8159 12.9853C23.8294 12.9853 23.8429 12.9841 23.8562 12.9823C24.2106 12.9896 24.4942 13.2786 24.4947 13.633C24.4947 13.7941 24.6252 13.9247 24.7863 13.9247C24.9473 13.9247 25.0779 13.7941 25.0779 13.633C25.0772 13.0533 24.6737 12.5518 24.1075 12.4271V12.1469C24.1075 11.9858 23.9769 11.8552 23.8159 11.8552C23.6548 11.8552 23.5242 11.9858 23.5242 12.1469V12.4403C22.9256 12.6004 22.5383 13.1795 22.619 13.794C22.6998 14.4084 23.2235 14.8678 23.8432 14.8678C24.203 14.8678 24.4947 15.1595 24.4947 15.5194C24.4947 15.8791 24.203 16.1708 23.8432 16.1708C23.4834 16.1708 23.1917 15.8791 23.1917 15.5194C23.1917 15.3583 23.0612 15.2277 22.9001 15.2277C22.7391 15.2277 22.6085 15.3583 22.6085 15.5194C22.6092 16.0781 22.9845 16.567 23.5242 16.7121V17.0316C23.5242 17.1927 23.6548 17.3232 23.8159 17.3232C23.9769 17.3232 24.1075 17.1927 24.1075 17.0316V16.7255C24.7233 16.5906 25.1387 16.0133 25.0708 15.3865C25.003 14.7597 24.4737 14.2847 23.8432 14.2848C23.4933 14.2849 23.2058 14.0087 23.192 13.6591C23.1783 13.3095 23.4433 13.0115 23.7922 12.9843V12.9841Z" fill="#DB5DE6"/>
<path d="M23.8599 10.4294C22.0658 10.4294 20.5348 11.6001 19.9612 13.1676H12.723C12.5627 13.1676 12.4326 13.3121 12.4314 13.4723L12.3625 23.7026H10.2993C10.1383 23.7026 10 23.8193 10 23.9806V25.2788C10.0037 26.501 10.9663 27.5051 12.1872 27.5603V27.5667H21.1912V27.5582C21.2641 27.5609 21.2942 27.5667 21.3403 27.5667H21.3466C22.6102 27.5647 23.6336 26.5397 23.6336 25.2761V18.7122C23.7065 18.7162 23.7837 18.7183 23.8592 18.7183C26.1422 18.7183 28 16.8569 28 14.5737C28 12.2907 26.1431 10.4294 23.8599 10.4294ZM12.2981 26.9835H12.2963C11.3529 26.9822 10.5875 26.2194 10.5833 25.2758V24.2859H19.0405V25.2717C19.0409 25.8803 19.284 26.4637 19.7157 26.8927C19.7463 26.9234 19.7843 26.947 19.8164 26.9835H12.2981ZM23.0503 25.2758C23.0505 26.2176 22.288 26.9816 21.3463 26.9835H21.3407C20.3952 26.9817 19.6284 26.2174 19.6237 25.272V23.9806C19.6261 23.906 19.5977 23.8338 19.5448 23.7811C19.492 23.7284 19.4198 23.7001 19.3453 23.7026H12.9458L13.0127 13.7508H19.7993C19.7476 14.0178 19.7208 14.289 19.7194 14.5608C19.7188 15.1356 19.8387 15.7041 20.0714 16.2297H17.3169C17.1557 16.2297 17.0253 16.3603 17.0253 16.5213C17.0253 16.6824 17.1557 16.8129 17.3169 16.8129H20.3878C20.9894 17.759 21.9512 18.4186 23.0503 18.6393V25.2758ZM23.8599 18.1352C21.8954 18.1352 20.3027 16.5427 20.3028 14.578C20.3028 12.6134 21.8954 11.0208 23.86 11.0208C25.8245 11.0208 27.4171 12.6135 27.4171 14.578C27.4149 16.5417 25.8237 18.1331 23.8599 18.1352Z" fill="#DB5DE6"/>
<path d="M15.445 18.1705C14.9302 18.1705 14.5116 18.5759 14.5116 19.0743C14.5116 19.5727 14.9302 19.9781 15.445 19.9781C15.9598 19.9781 16.3786 19.5727 16.3786 19.0743C16.3786 18.5759 15.9598 18.1705 15.445 18.1705ZM15.445 19.3949C15.2518 19.3949 15.0949 19.251 15.0949 19.0743C15.0949 18.8975 15.2519 18.7538 15.445 18.7538C15.6381 18.7538 15.7953 18.8976 15.7953 19.0743C15.7953 19.251 15.6381 19.3949 15.445 19.3949Z" fill="#DB5DE6"/>
<path d="M17.0253 19.073C17.0253 19.2341 17.1557 19.3646 17.3169 19.3646H21.2049C21.3659 19.3646 21.4965 19.2341 21.4965 19.073C21.4965 18.9119 21.3659 18.7814 21.2049 18.7814H17.3169C17.1557 18.7814 17.0253 18.9119 17.0253 19.073Z" fill="#DB5DE6"/>
<path d="M15.445 15.6355C14.9302 15.6355 14.5116 16.041 14.5116 16.5394C14.5116 17.0378 14.9302 17.4432 15.445 17.4432C15.9598 17.4432 16.3786 17.0378 16.3786 16.5394C16.3786 16.041 15.9598 15.6355 15.445 15.6355ZM15.445 16.86C15.2518 16.86 15.0949 16.7161 15.0949 16.5394C15.0949 16.3627 15.2519 16.2188 15.445 16.2188C15.6381 16.2188 15.7953 16.3626 15.7953 16.5394C15.7953 16.7161 15.6381 16.8601 15.445 16.8601V16.86Z" fill="#DB5DE6"/>
<path d="M15.445 20.7053C14.9302 20.7053 14.5116 21.1107 14.5116 21.6091C14.5116 22.1075 14.9302 22.5129 15.445 22.5129C15.9598 22.5129 16.3786 22.1075 16.3786 21.6091C16.3786 21.1107 15.9598 20.7053 15.445 20.7053ZM15.445 21.9296C15.2518 21.9296 15.0949 21.786 15.0949 21.6091C15.0949 21.4324 15.2519 21.2886 15.445 21.2886C15.6381 21.2886 15.7953 21.4324 15.7953 21.6091C15.7953 21.7858 15.6381 21.9296 15.445 21.9296Z" fill="#DB5DE6"/>
<path d="M21.2049 21.3331H17.3169C17.1557 21.3331 17.0253 21.4637 17.0253 21.6248C17.0253 21.7858 17.1557 21.9164 17.3169 21.9164H21.2049C21.3659 21.9164 21.4965 21.7858 21.4965 21.6248C21.4965 21.4637 21.3659 21.3331 21.2049 21.3331Z" fill="#DB5DE6"/>
</g>
<defs>
<clipPath id="clip0_503_883">
<rect width="18" height="18" fill="white" transform="translate(10 10)"/>
</clipPath>
</defs>
</svg>
