<svg width="38" height="38" viewBox="0 0 38 38" fill="none" xmlns="http://www.w3.org/2000/svg">
<circle cx="19" cy="19" r="19" fill="#EB5757" fill-opacity="0.2"/>
<path d="M22.0234 22.3594H12.9688C12.5752 22.3589 12.1979 22.2024 11.9197 21.9241C11.6414 21.6458 11.4848 21.2685 11.4844 20.875V13.75C11.4848 13.3565 11.6414 12.9792 11.9197 12.7009C12.1979 12.4226 12.5752 12.2661 12.9688 12.2656H24.25C24.6435 12.2661 25.0208 12.4226 25.2991 12.7009C25.5774 12.9792 25.7339 13.3565 25.7344 13.75V18.8147C25.7344 18.8934 25.7031 18.9689 25.6474 19.0246C25.5917 19.0803 25.5162 19.1116 25.4375 19.1116C25.3588 19.1116 25.2833 19.0803 25.2276 19.0246C25.1719 18.9689 25.1406 18.8934 25.1406 18.8147V13.75C25.1406 13.5138 25.0468 13.2873 24.8798 13.1202C24.7127 12.9532 24.4862 12.8594 24.25 12.8594H12.9688C12.7325 12.8594 12.506 12.9532 12.339 13.1202C12.172 13.2873 12.0781 13.5138 12.0781 13.75V20.875C12.0781 21.1112 12.172 21.3377 12.339 21.5048C12.506 21.6718 12.7325 21.7656 12.9688 21.7656H22.0234C22.1022 21.7656 22.1777 21.7969 22.2334 21.8526C22.289 21.9083 22.3203 21.9838 22.3203 22.0625C22.3203 22.1412 22.289 22.2167 22.2334 22.2724C22.1777 22.3281 22.1022 22.3594 22.0234 22.3594Z" fill="#EB5757"/>
<path d="M25.4375 17.3125H11.7812C11.7025 17.3125 11.627 17.2812 11.5713 17.2255C11.5157 17.1699 11.4844 17.0944 11.4844 17.0156V15.2344C11.4844 15.1556 11.5157 15.0801 11.5713 15.0245C11.627 14.9688 11.7025 14.9375 11.7812 14.9375H25.4375C25.5162 14.9375 25.5917 14.9688 25.6474 15.0245C25.7031 15.0801 25.7344 15.1556 25.7344 15.2344V17.0156C25.7344 17.0944 25.7031 17.1699 25.6474 17.2255C25.5917 17.2812 25.5162 17.3125 25.4375 17.3125ZM12.0781 16.7188H25.1406V15.5312H12.0781V16.7188Z" fill="#EB5757"/>
<path d="M21.875 19.0938H20.6875C20.6088 19.0938 20.5333 19.0625 20.4776 19.0068C20.4219 18.9511 20.3906 18.8756 20.3906 18.7969C20.3906 18.7181 20.4219 18.6426 20.4776 18.587C20.5333 18.5313 20.6088 18.5 20.6875 18.5H21.875C21.9537 18.5 22.0292 18.5313 22.0849 18.587C22.1406 18.6426 22.1719 18.7181 22.1719 18.7969C22.1719 18.8756 22.1406 18.9511 22.0849 19.0068C22.0292 19.0625 21.9537 19.0938 21.875 19.0938Z" fill="#EB5757"/>
<path d="M19.5 19.0938H18.3125C18.2338 19.0938 18.1583 19.0625 18.1026 19.0068C18.0469 18.9511 18.0156 18.8756 18.0156 18.7969C18.0156 18.7181 18.0469 18.6426 18.1026 18.587C18.1583 18.5313 18.2338 18.5 18.3125 18.5H19.5C19.5787 18.5 19.6542 18.5313 19.7099 18.587C19.7656 18.6426 19.7969 18.7181 19.7969 18.7969C19.7969 18.8756 19.7656 18.9511 19.7099 19.0068C19.6542 19.0625 19.5787 19.0938 19.5 19.0938Z" fill="#EB5757"/>
<path d="M17.125 20.875H13.5625C13.4838 20.875 13.4083 20.8437 13.3526 20.788C13.2969 20.7324 13.2656 20.6569 13.2656 20.5781V18.7969C13.2656 18.7181 13.2969 18.6426 13.3526 18.587C13.4083 18.5313 13.4838 18.5 13.5625 18.5H17.125C17.2037 18.5 17.2792 18.5313 17.3349 18.587C17.3906 18.6426 17.4219 18.7181 17.4219 18.7969V20.5781C17.4219 20.6569 17.3906 20.7324 17.3349 20.788C17.2792 20.8437 17.2037 20.875 17.125 20.875ZM13.8594 20.2812H16.8281V19.0938H13.8594V20.2812Z" fill="#EB5757"/>
<path d="M24.5469 24.7343C24.5235 24.7343 24.5002 24.7316 24.4774 24.7263C23.6576 24.5256 22.9278 24.0579 22.4029 23.397C21.8781 22.736 21.5879 21.9193 21.5781 21.0753V19.0723C21.5781 18.9948 21.6084 18.9204 21.6624 18.8649C21.7165 18.8095 21.7901 18.7773 21.8676 18.7754C22.7456 18.7367 23.611 18.5517 24.4281 18.228C24.4656 18.2117 24.506 18.2034 24.5469 18.2034C24.5877 18.2034 24.6281 18.2117 24.6656 18.228C25.4717 18.5788 26.3397 18.7649 27.2188 18.7754C27.2975 18.7754 27.373 18.8067 27.4287 18.8624C27.4843 18.918 27.5156 18.9935 27.5156 19.0723V21.0753C27.506 21.9194 27.2159 22.7362 26.691 23.3973C26.1661 24.0584 25.4362 24.5261 24.6163 24.7269C24.5935 24.732 24.5702 24.7345 24.5469 24.7343ZM22.1719 19.3525V21.0744C22.1807 21.773 22.4175 22.4496 22.8462 23.0012C23.2749 23.5528 23.8721 23.9494 24.5469 24.1304C25.2216 23.9494 25.8188 23.5528 26.2475 23.0012C26.6762 22.4496 26.913 21.773 26.9219 21.0744V19.3608C26.1056 19.316 25.3027 19.1341 24.5469 18.8226C23.7855 19.1149 22.9853 19.2935 22.1719 19.3525Z" fill="#EB5757"/>
<path d="M24.25 22.3594C24.1914 22.3594 24.1341 22.342 24.0853 22.3095L23.1946 21.7158C23.1291 21.6721 23.0837 21.6041 23.0683 21.5269C23.0528 21.4497 23.0687 21.3695 23.1124 21.304C23.1561 21.2385 23.224 21.193 23.3013 21.1776C23.3785 21.1622 23.4587 21.1781 23.5242 21.2218L24.2123 21.6804L25.673 20.2198C25.729 20.1657 25.8039 20.1358 25.8818 20.1365C25.9596 20.1372 26.0341 20.1684 26.0891 20.2234C26.1442 20.2785 26.1754 20.3529 26.1761 20.4308C26.1767 20.5086 26.1468 20.5836 26.0927 20.6396L24.4599 22.2724C24.4043 22.3281 24.3288 22.3594 24.25 22.3594Z" fill="#EB5757"/>
</svg>
