<svg width="16" height="16" viewBox="0 0 16 16" fill="none" xmlns="http://www.w3.org/2000/svg">
<path d="M1.33334 2.99992C1.33334 2.07944 2.07954 1.33325 3.00001 1.33325H4.66668C5.58715 1.33325 6.33334 2.07944 6.33334 2.99992V4.66659C6.33334 5.58706 5.58715 6.33325 4.66668 6.33325H3.00001C2.07954 6.33325 1.33334 5.58706 1.33334 4.66659V2.99992Z" stroke="#3E9269" stroke-width="1.66667" stroke-linecap="round" stroke-linejoin="round"/>
<path d="M9.66668 2.99992C9.66668 2.07944 10.4129 1.33325 11.3333 1.33325H13C13.9205 1.33325 14.6667 2.07944 14.6667 2.99992V4.66659C14.6667 5.58706 13.9205 6.33325 13 6.33325H11.3333C10.4129 6.33325 9.66668 5.58706 9.66668 4.66659V2.99992Z" stroke="#3E9269" stroke-width="1.66667" stroke-linecap="round" stroke-linejoin="round"/>
<path d="M1.33334 11.3333C1.33334 10.4128 2.07954 9.66659 3.00001 9.66659H4.66668C5.58715 9.66659 6.33334 10.4128 6.33334 11.3333V12.9999C6.33334 13.9204 5.58715 14.6666 4.66668 14.6666H3.00001C2.07954 14.6666 1.33334 13.9204 1.33334 12.9999V11.3333Z" stroke="#3E9269" stroke-width="1.66667" stroke-linecap="round" stroke-linejoin="round"/>
<path d="M9.66668 11.3333C9.66668 10.4128 10.4129 9.66659 11.3333 9.66659H13C13.9205 9.66659 14.6667 10.4128 14.6667 11.3333V12.9999C14.6667 13.9204 13.9205 14.6666 13 14.6666H11.3333C10.4129 14.6666 9.66668 13.9204 9.66668 12.9999V11.3333Z" stroke="#3E9269" stroke-width="1.66667" stroke-linecap="round" stroke-linejoin="round"/>
</svg>
