<svg width="38" height="38" viewBox="0 0 38 38" fill="none" xmlns="http://www.w3.org/2000/svg">
<circle cx="19" cy="19" r="19" fill="white"/>
<g clip-path="url(#clip0_503_781)">
<path d="M24.1981 11.9614H13.8019C11.7055 11.9614 10 13.6669 10 15.7633V20.6249C10 21.5247 10.3219 22.3981 10.9064 23.0841C11.4108 23.6762 12.0839 24.0997 12.8274 24.2984L11.9801 27.6582C11.9496 27.7791 11.9955 27.9063 12.0961 27.9797C12.1496 28.0189 12.213 28.0386 12.2765 28.0386C12.3322 28.0386 12.3881 28.0234 12.4376 27.9926L18.1831 24.4267H24.1981C26.2945 24.4267 28 22.7212 28 20.6248V15.7633C28 13.6669 26.2945 11.9614 24.1981 11.9614ZM27.3887 20.6249C27.3887 22.3842 25.9574 23.8154 24.1981 23.8154H18.112C18.1106 23.8154 18.1093 23.8156 18.1079 23.8157C18.049 23.8133 17.9887 23.828 17.9348 23.8614L12.7577 27.0746L13.4837 24.1959C13.4843 24.1933 13.4847 24.1907 13.4852 24.1882C13.4942 24.1671 13.5011 24.1449 13.5052 24.1214C13.5342 23.9552 13.423 23.7968 13.2567 23.7677C11.7239 23.5 10.6114 22.1783 10.6114 20.6249V15.7633C10.6114 14.004 12.0426 12.5727 13.8019 12.5727H24.1982C25.9575 12.5727 27.3887 14.004 27.3887 15.7633V20.6249H27.3887ZM14.8764 17.8303C14.3819 17.7117 13.9548 17.6092 13.9548 17.2283C13.9548 16.8097 14.4242 16.6606 14.8636 16.6606C15.1539 16.6606 15.4371 16.7079 15.707 16.8017C15.7483 16.8182 15.7801 16.8259 15.8072 16.8259C15.9636 16.8259 16.0605 16.6889 16.0605 16.5619C16.0605 16.4388 15.9999 16.3521 15.8851 16.3111C15.5655 16.1927 15.2039 16.1327 14.8103 16.1327C13.8288 16.1327 13.3895 16.7017 13.3895 17.2656C13.3895 18.0353 14.1527 18.2307 14.766 18.3877C15.2431 18.5098 15.6552 18.6153 15.6552 18.9289C15.6552 19.0706 15.6552 19.5018 14.7623 19.5018C14.3974 19.5018 14.0492 19.4294 13.7279 19.2865C13.6888 19.2698 13.6516 19.2619 13.6109 19.2619C13.4658 19.2619 13.3522 19.3779 13.3522 19.5259C13.3522 19.6319 13.4264 19.7415 13.5257 19.7813C13.9246 19.9532 14.3568 20.0404 14.8103 20.0404C15.6374 20.0404 16.2151 19.5965 16.2151 18.9608C16.2151 18.1515 15.4728 17.9734 14.8764 17.8303ZM20.69 16.1593H20.5141C20.3595 16.1593 20.2138 16.2596 20.1517 16.4083L18.9788 19.3329L17.8056 16.4078C17.7437 16.2592 17.5981 16.1593 17.4435 16.1593H17.2675C17.0543 16.1593 16.8809 16.3351 16.8809 16.5512V19.7338C16.8809 19.8881 17.0065 20.0137 17.1609 20.0137C17.3182 20.0137 17.4462 19.8881 17.4462 19.7338V17.0862L17.5117 17.0735L18.6009 19.7659C18.6682 19.9188 18.813 20.0137 18.9788 20.0137C19.1446 20.0137 19.2897 19.918 19.3571 19.7648L20.4459 17.0735L20.5113 17.0862V19.7338C20.5113 19.8881 20.6393 20.0137 20.7966 20.0137C20.951 20.0137 21.0766 19.8881 21.0766 19.7338V16.5512C21.0766 16.3351 20.9032 16.1593 20.69 16.1593ZM23.3091 17.8303C22.8146 17.7117 22.3874 17.6092 22.3874 17.2283C22.3874 16.8097 22.8569 16.6606 23.2963 16.6606C23.5866 16.6606 23.8698 16.7079 24.1397 16.8017C24.1809 16.8182 24.2128 16.8259 24.2399 16.8259C24.3963 16.8259 24.4932 16.6889 24.4932 16.5619C24.4932 16.4388 24.4326 16.3521 24.3177 16.3111C23.9982 16.1927 23.6366 16.1327 23.243 16.1327C22.2615 16.1327 21.8222 16.7017 21.8222 17.2656C21.8222 18.0353 22.5854 18.2307 23.1987 18.3877C23.6758 18.5098 24.0878 18.6153 24.0878 18.9289C24.0878 19.0706 24.0878 19.5018 23.195 19.5018C22.83 19.5018 22.4819 19.4294 22.1605 19.2865C22.1214 19.2697 22.0842 19.2619 22.0435 19.2619C21.8985 19.2619 21.7848 19.3779 21.7848 19.5259C21.7848 19.6319 21.859 19.7415 21.9583 19.7813C22.3572 19.9532 22.7895 20.0404 23.2429 20.0404C24.0701 20.0404 24.6477 19.5965 24.6477 18.9608C24.6478 18.1515 23.9055 17.9734 23.3091 17.8303Z" fill="#347CE1"/>
</g>
<defs>
<clipPath id="clip0_503_781">
<rect width="18" height="18" fill="white" transform="translate(10 11)"/>
</clipPath>
</defs>
</svg>
