<svg width="18" height="17" viewBox="0 0 18 17" fill="none" xmlns="http://www.w3.org/2000/svg">
<path d="M8.20746 1.43886C8.45694 0.671146 9.54306 0.671146 9.79254 1.43887L11.0582 5.33379C11.1698 5.67712 11.4897 5.90956 11.8507 5.90958L15.9462 5.90973C16.7534 5.90976 17.089 6.94272 16.436 7.41723L13.1228 9.82458C12.8308 10.0368 12.7086 10.4129 12.8201 10.7562L14.0855 14.6512C14.3349 15.419 13.4562 16.0574 12.8031 15.5829L9.4898 13.1758C9.19773 12.9636 8.80227 12.9637 8.5102 13.1758L5.19685 15.5829C4.54377 16.0574 3.66508 15.419 3.9145 14.6512L5.17991 10.7562C5.29145 10.4129 5.16924 10.0368 4.8772 9.82458L1.56403 7.41723C0.910975 6.94272 1.2466 5.90976 2.05384 5.90973L6.14926 5.90958C6.51026 5.90956 6.83019 5.67712 6.94176 5.33379L8.20746 1.43886Z" stroke="#F2994A" stroke-width="1.66667"/>
</svg>
