<svg width="38" height="38" viewBox="0 0 38 38" fill="none" xmlns="http://www.w3.org/2000/svg">
<circle cx="19" cy="18.9983" r="19" fill="#0271E8" fill-opacity="0.2"/>
<path d="M18.5 23.7163C18.0898 23.7163 17.756 24.0501 17.756 24.4603C17.756 24.8705 18.0898 25.2042 18.5 25.2042C18.9102 25.2042 19.2439 24.8705 19.2439 24.4603C19.2439 24.0501 18.9102 23.7163 18.5 23.7163ZM18.5 24.7648C18.3321 24.7648 18.1955 24.6282 18.1955 24.4603C18.1955 24.2924 18.3321 24.1558 18.5 24.1558C18.6679 24.1558 18.8045 24.2924 18.8045 24.4603C18.8045 24.6282 18.6679 24.7648 18.5 24.7648Z" fill="#0271E8"/>
<path d="M21.908 22.2258C22.0293 22.2258 22.1277 22.1274 22.1277 22.0061V21.8273C22.5165 21.7335 22.766 21.4036 22.8207 21.0782C22.8914 20.6576 22.6716 20.292 22.2609 20.1468C22.0201 20.0617 21.7534 19.9586 21.6013 19.8393C21.5418 19.7927 21.5161 19.6951 21.5358 19.5908C21.555 19.4886 21.6244 19.3647 21.7612 19.3235C22.0689 19.2309 22.2695 19.3962 22.2835 19.4082L22.3351 19.4555C22.4245 19.5376 22.5635 19.5316 22.6456 19.4422C22.7276 19.3528 22.7217 19.2138 22.6322 19.1317L22.5798 19.0836C22.5695 19.0741 22.4022 18.9235 22.1277 18.8724V18.7312C22.1277 18.6099 22.0293 18.5115 21.908 18.5115C21.7866 18.5115 21.6882 18.6099 21.6882 18.7312V18.8879C21.6705 18.8923 21.6526 18.8972 21.6345 18.9027C21.3623 18.9846 21.159 19.2171 21.104 19.5094C21.0535 19.7772 21.1401 20.0361 21.3301 20.185C21.493 20.3128 21.7203 20.4218 22.1144 20.5611C22.4188 20.6687 22.4003 20.9284 22.3873 21.0053C22.3544 21.2009 22.19 21.4123 21.9065 21.4142C21.6467 21.4161 21.5584 21.4019 21.355 21.2688C21.2535 21.2023 21.1174 21.2308 21.0509 21.3324C20.9844 21.4339 21.0129 21.5701 21.1145 21.6365C21.3388 21.7833 21.4957 21.8327 21.6883 21.8477V22.006C21.6882 22.1274 21.7866 22.2258 21.908 22.2258Z" fill="#0271E8"/>
<path d="M14.2812 14.4289H15.2702C15.6337 14.4289 15.9293 14.1332 15.9293 13.7697V12.7808C15.9293 12.4173 15.6337 12.1216 15.2702 12.1216H14.2812C13.9178 12.1216 13.6221 12.4173 13.6221 12.7808V13.7697C13.6221 14.1332 13.9178 14.4289 14.2812 14.4289ZM14.0615 12.7808C14.0615 12.6596 14.1601 12.561 14.2812 12.561H15.2702C15.3913 12.561 15.4899 12.6596 15.4899 12.7808V13.7697C15.4899 13.8909 15.3913 13.9894 15.2702 13.9894H14.2812C14.1601 13.9894 14.0615 13.8909 14.0615 13.7697V12.7808Z" fill="#0271E8"/>
<path d="M13.6221 16.9647C13.6221 17.3282 13.9178 17.6239 14.2812 17.6239H15.2702C15.6337 17.6239 15.9293 17.3282 15.9293 16.9647V15.9758C15.9293 15.6123 15.6337 15.3167 15.2702 15.3167H14.2812C13.9178 15.3167 13.6221 15.6123 13.6221 15.9758V16.9647ZM14.0615 15.9758C14.0615 15.8546 14.1601 15.7561 14.2812 15.7561H15.2702C15.3913 15.7561 15.4899 15.8546 15.4899 15.9758V16.9647C15.4899 17.0859 15.3913 17.1844 15.2702 17.1844H14.2812C14.1601 17.1844 14.0615 17.0859 14.0615 16.9647V15.9758Z" fill="#0271E8"/>
<path d="M16.7744 14.429H22.6135C22.7349 14.429 22.8332 14.3306 22.8332 14.2092C22.8332 14.0879 22.7349 13.9895 22.6135 13.9895H16.7744C16.653 13.9895 16.5546 14.0879 16.5546 14.2092C16.5546 14.3306 16.653 14.429 16.7744 14.429Z" fill="#0271E8"/>
<path d="M16.7744 16.6899H22.6135C22.7349 16.6899 22.8332 16.5916 22.8332 16.4702C22.8332 16.3489 22.7349 16.2505 22.6135 16.2505H16.7744C16.653 16.2505 16.5546 16.3489 16.5546 16.4702C16.5546 16.5916 16.653 16.6899 16.7744 16.6899Z" fill="#0271E8"/>
<path d="M16.7744 19.885H19.6939C19.8153 19.885 19.9137 19.7866 19.9137 19.6653C19.9137 19.5439 19.8153 19.4456 19.6939 19.4456H16.7744C16.653 19.4456 16.5546 19.5439 16.5546 19.6653C16.5546 19.7866 16.653 19.885 16.7744 19.885Z" fill="#0271E8"/>
<path d="M16.7744 20.8188H19.6939C19.8153 20.8188 19.9137 20.7205 19.9137 20.5991C19.9137 20.4778 19.8153 20.3794 19.6939 20.3794H16.7744C16.653 20.3794 16.5546 20.4778 16.5546 20.5991C16.5546 20.7205 16.653 20.8188 16.7744 20.8188Z" fill="#0271E8"/>
<path d="M13.8418 22.2383H19.694C19.8154 22.2383 19.9137 22.1399 19.9137 22.0186C19.9137 21.8972 19.8154 21.7988 19.694 21.7988H13.8418C13.7204 21.7988 13.6221 21.8972 13.6221 22.0186C13.6221 22.1399 13.7204 22.2383 13.8418 22.2383Z" fill="#0271E8"/>
<path d="M23.3047 10.9983H13.6953C13.0087 10.9983 12.4502 11.5568 12.4502 12.2434V16.9941C12.4502 17.1154 12.5486 17.2138 12.6699 17.2138C12.7913 17.2138 12.8896 17.1154 12.8896 16.9941V12.2434C12.8896 11.7992 13.2511 11.4377 13.6953 11.4377H23.3047C23.7489 11.4377 24.1104 11.7992 24.1104 12.2434V22.9221H12.8896V17.9517C12.8896 17.8304 12.7913 17.732 12.6699 17.732C12.5486 17.732 12.4502 17.8304 12.4502 17.9517V24.7532C12.4502 25.4397 13.0087 25.9983 13.6953 25.9983H23.3047C23.9913 25.9983 24.5498 25.4397 24.5498 24.7532V12.2434C24.5498 11.5568 23.9913 10.9983 23.3047 10.9983ZM23.3047 25.5588H13.6953C13.2511 25.5588 12.8896 25.1974 12.8896 24.7532V23.3616H24.1104V24.7532C24.1104 25.1974 23.7489 25.5588 23.3047 25.5588Z" fill="#0271E8"/>
<path d="M16.7744 17.6238H22.6135C22.7349 17.6238 22.8332 17.5254 22.8332 17.4041C22.8332 17.2827 22.7349 17.1843 22.6135 17.1843H16.7744C16.653 17.1843 16.5546 17.2827 16.5546 17.4041C16.5546 17.5254 16.653 17.6238 16.7744 17.6238Z" fill="#0271E8"/>
<path d="M22.6135 13.4951C22.7349 13.4951 22.8332 13.3967 22.8332 13.2754C22.8332 13.154 22.7349 13.0557 22.6135 13.0557H21.4085C21.2871 13.0557 21.1888 13.154 21.1888 13.2754C21.1888 13.3967 21.2871 13.4951 21.4085 13.4951H22.6135Z" fill="#0271E8"/>
<path d="M16.7744 13.4951H20.4509C20.5723 13.4951 20.6706 13.3967 20.6706 13.2754C20.6706 13.154 20.5723 13.0557 20.4509 13.0557H16.7744C16.653 13.0557 16.5546 13.154 16.5546 13.2754C16.5546 13.3967 16.653 13.4951 16.7744 13.4951Z" fill="#0271E8"/>
<path d="M13.6221 20.1596C13.6221 20.5231 13.9178 20.8188 14.2812 20.8188C14.4026 20.8188 14.501 20.7204 14.501 20.599C14.501 20.4777 14.4026 20.3793 14.2812 20.3793C14.1601 20.3793 14.0615 20.2807 14.0615 20.1596V19.1707C14.0615 19.0495 14.1601 18.9509 14.2812 18.9509H15.2702C15.3913 18.9509 15.4899 19.0495 15.4899 19.1707V20.1596C15.4899 20.2807 15.3913 20.3793 15.2702 20.3793C15.1488 20.3793 15.0504 20.4777 15.0504 20.599C15.0504 20.7204 15.1488 20.8188 15.2702 20.8188C15.6337 20.8188 15.9293 20.5231 15.9293 20.1596V19.1707C15.9293 18.8072 15.6337 18.5115 15.2702 18.5115H14.2812C13.9178 18.5115 13.6221 18.8072 13.6221 19.1707V20.1596Z" fill="#0271E8"/>
</svg>
