<svg width="38" height="38" viewBox="0 0 38 38" fill="none" xmlns="http://www.w3.org/2000/svg">
<circle cx="19" cy="19" r="19" fill="white"/>
<path d="M23.875 28H13.375C12.3415 28 11.5 27.1585 11.5 26.125V13.375C11.5 12.3415 12.3415 11.5 13.375 11.5H23.875C24.9085 11.5 25.75 12.3415 25.75 13.375V26.125C25.75 27.1585 24.9085 28 23.875 28ZM13.375 12.25C12.7548 12.25 12.25 12.7548 12.25 13.375V26.125C12.25 26.7452 12.7548 27.25 13.375 27.25H23.875C24.4952 27.25 25 26.7452 25 26.125V13.375C25 12.7548 24.4952 12.25 23.875 12.25H13.375Z" fill="#EF4665"/>
<path d="M14.875 13.75C14.668 13.75 14.5 13.582 14.5 13.375V10.375C14.5 10.168 14.668 10 14.875 10C15.082 10 15.25 10.168 15.25 10.375V13.375C15.25 13.582 15.082 13.75 14.875 13.75Z" fill="#EF4665"/>
<path d="M19 13.75C18.793 13.75 18.625 13.582 18.625 13.375V10.375C18.625 10.168 18.793 10 19 10C19.207 10 19.375 10.168 19.375 10.375V13.375C19.375 13.582 19.207 13.75 19 13.75Z" fill="#EF4665"/>
<path d="M22.375 13.75C22.168 13.75 22 13.582 22 13.375V10.375C22 10.168 22.168 10 22.375 10C22.582 10 22.75 10.168 22.75 10.375V13.375C22.75 13.582 22.582 13.75 22.375 13.75Z" fill="#EF4665"/>
<path d="M23.125 23.5H14.875C14.668 23.5 14.5 23.332 14.5 23.125C14.5 22.918 14.668 22.75 14.875 22.75H23.125C23.332 22.75 23.5 22.918 23.5 23.125C23.5 23.332 23.332 23.5 23.125 23.5Z" fill="#EF4665"/>
<path d="M23.125 20.5H14.875C14.668 20.5 14.5 20.332 14.5 20.125C14.5 19.918 14.668 19.75 14.875 19.75H23.125C23.332 19.75 23.5 19.918 23.5 20.125C23.5 20.332 23.332 20.5 23.125 20.5Z" fill="#EF4665"/>
<path d="M19.375 17.5H14.875C14.668 17.5 14.5 17.332 14.5 17.125C14.5 16.918 14.668 16.75 14.875 16.75H19.375C19.582 16.75 19.75 16.918 19.75 17.125C19.75 17.332 19.582 17.5 19.375 17.5Z" fill="#EF4665"/>
</svg>
