<svg width="46" height="46" viewBox="0 0 46 46" fill="none" xmlns="http://www.w3.org/2000/svg">
<g filter="url(#filter0_d_11_828)">
<circle cx="23" cy="23" r="20" fill="#2AA76B"/>
</g>
<g clip-path="url(#clip0_11_828)">
<path d="M27.8897 25.012C27.5449 24.653 27.129 24.4611 26.6882 24.4611C26.251 24.4611 25.8316 24.6495 25.4725 25.0085L24.3493 26.1282C24.2568 26.0784 24.1644 26.0322 24.0756 25.986C23.9476 25.922 23.8267 25.8616 23.7237 25.7976C22.6715 25.1293 21.7153 24.2584 20.7982 23.1316C20.3539 22.57 20.0553 22.0972 19.8384 21.6173C20.1299 21.3508 20.4001 21.0735 20.6631 20.8069C20.7626 20.7074 20.8622 20.6043 20.9617 20.5047C21.7082 19.7583 21.7082 18.7914 20.9617 18.0449L19.9913 17.0745C19.8811 16.9643 19.7673 16.8506 19.6607 16.7368C19.4474 16.5164 19.2235 16.2889 18.9924 16.0757C18.6476 15.7344 18.2353 15.5531 17.8016 15.5531C17.368 15.5531 16.9485 15.7344 16.593 16.0757C16.5895 16.0792 16.5895 16.0792 16.5859 16.0828L15.3774 17.302C14.9224 17.757 14.6629 18.3115 14.606 18.9549C14.5207 19.9929 14.8264 20.9597 15.061 21.5925C15.6368 23.1458 16.4971 24.5855 17.7803 26.1282C19.3372 27.9873 21.2105 29.4553 23.3504 30.4897C24.168 30.8772 25.2593 31.3357 26.4785 31.4139C26.5531 31.4175 26.6313 31.4211 26.7024 31.4211C27.5236 31.4211 28.2132 31.126 28.7535 30.5395C28.757 30.5324 28.7641 30.5288 28.7677 30.5217C28.9525 30.2978 29.1658 30.0952 29.3898 29.8783C29.5426 29.7326 29.699 29.5797 29.8519 29.4198C30.2038 29.0537 30.3886 28.6271 30.3886 28.1899C30.3886 27.7491 30.2002 27.3261 29.8412 26.9706L27.8897 25.012ZM29.1623 28.7551C29.1587 28.7551 29.1587 28.7586 29.1623 28.7551C29.0236 28.9044 28.8814 29.0394 28.7286 29.1887C28.4975 29.4091 28.2629 29.6402 28.0425 29.8997C27.6835 30.2836 27.2605 30.4649 26.706 30.4649C26.6527 30.4649 26.5958 30.4649 26.5425 30.4613C25.4868 30.3938 24.5057 29.9814 23.7699 29.6295C21.7579 28.6555 19.9913 27.2728 18.5232 25.5203C17.3111 24.0594 16.5006 22.7086 15.9639 21.2583C15.6333 20.3732 15.5124 19.6836 15.5657 19.0331C15.6013 18.6172 15.7613 18.2724 16.0563 17.9774L17.2684 16.7653C17.4426 16.6018 17.6274 16.5129 17.8087 16.5129C18.0327 16.5129 18.214 16.648 18.3277 16.7617C18.3313 16.7653 18.3348 16.7688 18.3384 16.7724C18.5552 16.975 18.7614 17.1847 18.9782 17.4087C19.0884 17.5224 19.2021 17.6362 19.3159 17.7535L20.2863 18.7239C20.6631 19.1007 20.6631 19.449 20.2863 19.8258C20.1832 19.9289 20.0837 20.032 19.9806 20.1315C19.682 20.4372 19.3977 20.7216 19.0884 20.9988C19.0813 21.006 19.0742 21.0095 19.0706 21.0166C18.7649 21.3223 18.8218 21.6209 18.8858 21.8235C18.8893 21.8342 18.8929 21.8448 18.8964 21.8555C19.1488 22.4669 19.5043 23.0428 20.0446 23.7288L20.0482 23.7324C21.0292 24.9409 22.0636 25.8829 23.2047 26.6045C23.3504 26.6969 23.4997 26.7716 23.6419 26.8427C23.7699 26.9067 23.8907 26.9671 23.9938 27.0311C24.008 27.0382 24.0222 27.0488 24.0365 27.056C24.1573 27.1164 24.2711 27.1448 24.3884 27.1448C24.6834 27.1448 24.8682 26.96 24.9287 26.8995L26.1444 25.6839C26.2652 25.563 26.4572 25.4173 26.6811 25.4173C26.9015 25.4173 27.0828 25.5559 27.193 25.6767C27.1965 25.6803 27.1965 25.6803 27.2001 25.6839L29.1587 27.6425C29.5248 28.005 29.5248 28.3783 29.1623 28.7551Z" fill="white"/>
<path d="M23.6808 18.5852C24.6121 18.7416 25.4581 19.1824 26.1335 19.8578C26.8089 20.5332 27.2461 21.3792 27.4061 22.3105C27.4452 22.5451 27.6478 22.7086 27.8789 22.7086C27.9073 22.7086 27.9322 22.7051 27.9606 22.7015C28.2237 22.6588 28.3978 22.41 28.3552 22.147C28.1632 21.0202 27.63 19.9929 26.816 19.1789C26.002 18.3648 24.9747 17.8316 23.8479 17.6397C23.5849 17.597 23.3396 17.7712 23.2934 18.0307C23.2472 18.2902 23.4178 18.5426 23.6808 18.5852Z" fill="white"/>
<path d="M31.4015 22.0084C31.0852 20.1528 30.2107 18.4644 28.8671 17.1207C27.5234 15.7771 25.835 14.9026 23.9794 14.5863C23.72 14.5401 23.4747 14.7178 23.4285 14.9773C23.3858 15.2403 23.56 15.4856 23.823 15.5318C25.4795 15.8126 26.9902 16.5982 28.1917 17.7961C29.3932 18.9976 30.1752 20.5083 30.456 22.1648C30.4951 22.3994 30.6977 22.5629 30.9288 22.5629C30.9572 22.5629 30.9821 22.5593 31.0105 22.5558C31.27 22.5167 31.4478 22.2678 31.4015 22.0084Z" fill="white"/>
</g>
<defs>
<filter id="filter0_d_11_828" x="0.218536" y="0.218536" width="45.5629" height="45.5629" filterUnits="userSpaceOnUse" color-interpolation-filters="sRGB">
<feFlood flood-opacity="0" result="BackgroundImageFix"/>
<feColorMatrix in="SourceAlpha" type="matrix" values="0 0 0 0 0 0 0 0 0 0 0 0 0 0 0 0 0 0 127 0" result="hardAlpha"/>
<feOffset/>
<feGaussianBlur stdDeviation="1.39073"/>
<feComposite in2="hardAlpha" operator="out"/>
<feColorMatrix type="matrix" values="0 0 0 0 0 0 0 0 0 0 0 0 0 0 0 0 0 0 0.25 0"/>
<feBlend mode="normal" in2="BackgroundImageFix" result="effect1_dropShadow_11_828"/>
<feBlend mode="normal" in="SourceGraphic" in2="effect1_dropShadow_11_828" result="shape"/>
</filter>
<clipPath id="clip0_11_828">
<rect width="16.8421" height="16.8421" fill="white" transform="translate(14.5789 14.5789)"/>
</clipPath>
</defs>
</svg>
