<svg width="38" height="38" viewBox="0 0 38 38" fill="none" xmlns="http://www.w3.org/2000/svg">
<circle cx="19" cy="18.9983" r="19" fill="#2AA76B" fill-opacity="0.2"/>
<g clip-path="url(#clip0_4_2287)">
<path d="M20.0312 18.1077H20.8125C21.0714 18.1077 21.2812 17.8978 21.2812 17.6389C21.2812 17.38 21.0714 17.1702 20.8125 17.1702H20.0312C19.7724 17.1702 19.5625 17.38 19.5625 17.6389C19.5625 17.8978 19.7724 18.1077 20.0312 18.1077Z" fill="#3E9269"/>
<path d="M18.0312 17.1702H17.25C16.9911 17.1702 16.7812 17.38 16.7812 17.6389C16.7812 17.8978 16.9911 18.1077 17.25 18.1077H18.0312C18.2901 18.1077 18.5 17.8978 18.5 17.6389C18.5 17.38 18.2901 17.1702 18.0312 17.1702Z" fill="#3E9269"/>
<path d="M22.8125 18.1077H23.5938C23.8526 18.1077 24.0625 17.8978 24.0625 17.6389C24.0625 17.38 23.8526 17.1702 23.5938 17.1702H22.8125C22.5536 17.1702 22.3438 17.38 22.3438 17.6389C22.3438 17.8978 22.5536 18.1077 22.8125 18.1077Z" fill="#3E9269"/>
<path d="M15.25 19.2795H14.4688C14.2099 19.2795 14 19.4894 14 19.7483C14 20.0072 14.2099 20.217 14.4688 20.217H15.25C15.5089 20.217 15.7188 20.0072 15.7188 19.7483C15.7188 19.4894 15.5089 19.2795 15.25 19.2795Z" fill="#3E9269"/>
<path d="M18.0312 19.2795H17.25C16.9911 19.2795 16.7812 19.4894 16.7812 19.7483C16.7812 20.0072 16.9911 20.217 17.25 20.217H18.0312C18.2901 20.217 18.5 20.0072 18.5 19.7483C18.5 19.4894 18.2901 19.2795 18.0312 19.2795Z" fill="#3E9269"/>
<path d="M21.2812 19.7483C21.2812 19.4894 21.0714 19.2795 20.8125 19.2795H20.0312C19.7724 19.2795 19.5625 19.4894 19.5625 19.7483C19.5625 20.0072 19.7724 20.217 20.0312 20.217H20.8125C21.0714 20.217 21.2812 20.0072 21.2812 19.7483Z" fill="#3E9269"/>
<path d="M15.25 21.3889H14.4688C14.2099 21.3889 14 21.5988 14 21.8577C14 22.1165 14.2099 22.3264 14.4688 22.3264H15.25C15.5089 22.3264 15.7188 22.1165 15.7188 21.8577C15.7188 21.5988 15.5089 21.3889 15.25 21.3889Z" fill="#3E9269"/>
<path d="M18.0312 21.3889H17.25C16.9911 21.3889 16.7812 21.5988 16.7812 21.8577C16.7812 22.1165 16.9911 22.3264 17.25 22.3264H18.0312C18.2901 22.3264 18.5 22.1165 18.5 21.8577C18.5 21.5988 18.2901 21.3889 18.0312 21.3889Z" fill="#3E9269"/>
<path d="M26.0625 19.7194V13.6545C26.0625 12.7068 25.2915 11.9358 24.3438 11.9358H23.4375V11.467C23.4375 11.2082 23.2276 10.9983 22.9688 10.9983C22.7099 10.9983 22.5 11.2082 22.5 11.467V11.9358H20.8125V11.467C20.8125 11.2082 20.6026 10.9983 20.3438 10.9983C20.0849 10.9983 19.875 11.2082 19.875 11.467V11.9358H18.1875V11.467C18.1875 11.2082 17.9776 10.9983 17.7188 10.9983C17.4599 10.9983 17.25 11.2082 17.25 11.467V11.9358H15.5625V11.467C15.5625 11.2082 15.3526 10.9983 15.0938 10.9983C14.8349 10.9983 14.625 11.2082 14.625 11.467V11.9358H13.7188C12.771 11.9358 12 12.7068 12 13.6545V23.0295C12 23.8049 12.6308 24.4358 13.4062 24.4358H20.4257C20.9747 25.9297 22.4118 26.9983 24.0938 26.9983C26.2477 26.9983 28 25.2459 28 23.092C28 21.6556 27.2205 20.398 26.0625 19.7194ZM12.9375 13.6545C12.9375 13.2238 13.288 12.8733 13.7188 12.8733H14.625V13.342C14.625 13.6009 14.8349 13.8108 15.0938 13.8108C15.3526 13.8108 15.5625 13.6009 15.5625 13.342V12.8733H17.25V13.342C17.25 13.6009 17.4599 13.8108 17.7188 13.8108C17.9776 13.8108 18.1875 13.6009 18.1875 13.342V12.8733H19.875V13.342C19.875 13.6009 20.0849 13.8108 20.3438 13.8108C20.6026 13.8108 20.8125 13.6009 20.8125 13.342V12.8733H22.5V13.342C22.5 13.6009 22.7099 13.8108 22.9688 13.8108C23.2276 13.8108 23.4375 13.6009 23.4375 13.342V12.8733H24.3438C24.7745 12.8733 25.125 13.2238 25.125 13.6545V15.0608H12.9375V13.6545ZM13.4062 23.4983C13.1478 23.4983 12.9375 23.288 12.9375 23.0295V15.9983H25.125V19.3242C24.7963 19.2342 24.4506 19.1858 24.0938 19.1858C21.9398 19.1858 20.1875 20.9381 20.1875 23.092C20.1875 23.2292 20.1947 23.3647 20.2086 23.4983H13.4062ZM24.0938 26.0608C22.4568 26.0608 21.125 24.729 21.125 23.092C21.125 21.4551 22.4568 20.1233 24.0938 20.1233C25.7307 20.1233 27.0625 21.4551 27.0625 23.092C27.0625 24.729 25.7307 26.0608 24.0938 26.0608Z" fill="#3E9269"/>
<path d="M25.6562 22.6233H24.5625V21.5295C24.5625 21.2707 24.3526 21.0608 24.0938 21.0608C23.8349 21.0608 23.625 21.2707 23.625 21.5295V23.092C23.625 23.3509 23.8349 23.5608 24.0938 23.5608H25.6562C25.9151 23.5608 26.125 23.3509 26.125 23.092C26.125 22.8332 25.9151 22.6233 25.6562 22.6233Z" fill="#3E9269"/>
</g>
<defs>
<clipPath id="clip0_4_2287">
<rect width="16" height="16" fill="white" transform="translate(12 10.9983)"/>
</clipPath>
</defs>
</svg>
