<svg width="38" height="38" viewBox="0 0 38 38" fill="none" xmlns="http://www.w3.org/2000/svg">
<circle cx="19" cy="19" r="19" fill="white"/>
<g clip-path="url(#clip0_503_851)">
<path d="M26.3487 19.2309V14.6911C26.3487 13.6122 25.4652 12.721 24.3862 12.721H24.1417V12.4133C24.1417 11.6434 23.5177 11.0194 22.7478 11.0194C21.978 11.0194 21.3539 11.6434 21.3539 12.4133V12.721H16.243V12.4133C16.243 11.6328 15.6102 11 14.8297 11C14.0492 11 13.4165 11.6328 13.4165 12.4133V12.721H13.2052C12.1262 12.721 11.2482 13.6122 11.2482 14.6911V25.1153C11.2482 26.1943 12.1262 27.0859 13.2052 27.0859H19.3459C20.3583 28.2969 21.8547 28.9977 23.4332 29C26.3642 29 28.7519 26.6119 28.7519 23.6808C28.7519 21.823 27.7814 20.1816 26.3487 19.2309ZM22.1283 12.4133C22.1224 12.076 22.3909 11.7978 22.7281 11.7918C22.7335 11.7917 22.739 11.7917 22.7444 11.7917C23.0848 11.7881 23.3637 12.0612 23.3673 12.4016C23.3674 12.4055 23.3674 12.4094 23.3673 12.4133V13.9213H22.1283V12.4133ZM14.1908 12.4133C14.1945 12.0663 14.4788 11.788 14.8258 11.7917C14.8264 11.7917 14.827 11.7917 14.8275 11.7917C15.1758 11.7917 15.4686 12.0651 15.4686 12.4133V13.9213H14.1908V12.4133ZM12.0226 14.6911C12.0226 14.0391 12.5532 13.4954 13.2052 13.4954H13.4165V14.3246C13.4165 14.5384 13.595 14.6957 13.8089 14.6957H15.8463C16.0601 14.6957 16.243 14.5384 16.243 14.3246V13.4954H21.3539V14.3246C21.3482 14.5238 21.5051 14.69 21.7043 14.6957C21.7114 14.6959 21.7185 14.6959 21.7256 14.6957H23.7631C23.9654 14.7024 24.1348 14.5439 24.1416 14.3416C24.1418 14.3359 24.1418 14.3303 24.1417 14.3246V13.4954H24.3862C25.0426 13.502 25.5719 14.0347 25.5744 14.6911V15.9347H12.0226V14.6911ZM13.2052 26.3115C12.5532 26.3115 12.0226 25.7673 12.0226 25.1153V16.7091H25.5744V18.8098C24.9004 18.5139 24.1722 18.3612 23.4361 18.3615C20.5051 18.3615 18.1189 20.7531 18.1189 23.6842C18.1174 24.6051 18.3554 25.5105 18.8096 26.3115H13.2052ZM23.4332 28.2187C20.925 28.2187 18.8917 26.1854 18.8917 23.6773C18.8917 21.1691 20.925 19.1358 23.4332 19.1358C25.9413 19.1358 27.9746 21.1691 27.9746 23.6773V23.6773C27.9718 26.1843 25.9402 28.2159 23.4332 28.2187Z" fill="#B34DE2"/>
<path d="M25.2572 23.6786H23.5609V21.3489C23.5609 21.135 23.3875 20.9617 23.1737 20.9617C22.9598 20.9617 22.7865 21.135 22.7865 21.3489V24.0654C22.7899 24.2807 22.9656 24.4534 23.181 24.453H25.2572C25.471 24.453 25.6444 24.2797 25.6444 24.0658C25.6444 23.852 25.471 23.6786 25.2572 23.6786Z" fill="#B34DE2"/>
</g>
<defs>
<clipPath id="clip0_503_851">
<rect width="18" height="18" fill="white" transform="translate(11 11)"/>
</clipPath>
</defs>
</svg>
