<svg width="22" height="19" viewBox="0 0 22 19" fill="none" xmlns="http://www.w3.org/2000/svg">
<path d="M18.2613 13.0532C17.982 12.774 17.6265 12.5837 17.2393 12.5062L14.8517 12.0287C13.5434 11.7671 12.1851 11.949 10.9918 12.5457L10.6744 12.7043C9.48098 13.301 8.12274 13.4829 6.81439 13.2213L4.88264 12.8349C4.22692 12.7038 3.54904 12.909 3.0762 13.3819M6.83306 1.625H14.8331L13.8331 2.625V7.79657C13.8331 8.32701 14.0438 8.83571 14.4188 9.21079L19.4188 14.2108C20.6788 15.4707 19.7864 17.625 18.0046 17.625H3.66149C1.87968 17.625 0.987345 15.4707 2.24727 14.2108L7.24727 9.21079C7.62235 8.83571 7.83306 8.32701 7.83306 7.79657V2.625L6.83306 1.625Z" stroke="#0271E8" stroke-width="2" stroke-linecap="round" stroke-linejoin="round"/>
</svg>
