<svg width="83" height="14" viewBox="0 0 83 14" fill="none" xmlns="http://www.w3.org/2000/svg">
<path d="M0.137784 14V0.909091H5.30256C6.29545 0.909091 7.14134 1.09872 7.8402 1.47798C8.53906 1.85298 9.07173 2.375 9.43821 3.04403C9.80895 3.70881 9.99432 4.47585 9.99432 5.34517C9.99432 6.21449 9.80682 6.98153 9.43182 7.64631C9.05682 8.31108 8.51349 8.82883 7.80185 9.19957C7.09446 9.57031 6.23793 9.75568 5.23224 9.75568H1.94034V7.53764H4.7848C5.31747 7.53764 5.75639 7.44602 6.10156 7.26278C6.45099 7.07528 6.71094 6.81747 6.88139 6.48935C7.05611 6.15696 7.14347 5.77557 7.14347 5.34517C7.14347 4.91051 7.05611 4.53125 6.88139 4.20739C6.71094 3.87926 6.45099 3.62571 6.10156 3.44673C5.75213 3.26349 5.30895 3.17188 4.77202 3.17188H2.90554V14H0.137784ZM12.5368 14H9.57085L14.09 0.909091H17.6568L22.1696 14H19.2037L15.9245 3.90057H15.8223L12.5368 14ZM12.3514 8.8544H19.3571V11.0149H12.3514V8.8544ZM23.7452 14V0.909091H28.91C29.8986 0.909091 30.7424 1.08594 31.4412 1.43963C32.1444 1.78906 32.6792 2.28551 33.0456 2.92898C33.4164 3.56818 33.6017 4.32031 33.6017 5.18537C33.6017 6.05469 33.4142 6.80256 33.0392 7.42898C32.6642 8.05114 32.1209 8.52841 31.4093 8.8608C30.7019 9.19318 29.8453 9.35938 28.8397 9.35938H25.3816V7.13494H28.3922C28.9206 7.13494 29.3596 7.0625 29.709 6.91761C30.0584 6.77273 30.3184 6.5554 30.4888 6.26562C30.6635 5.97585 30.7509 5.61577 30.7509 5.18537C30.7509 4.75071 30.6635 4.38423 30.4888 4.08594C30.3184 3.78764 30.0563 3.56179 29.7026 3.40838C29.3532 3.25071 28.9121 3.17188 28.3794 3.17188H26.513V14H23.7452ZM30.8148 8.04261L34.0684 14H31.013L27.8297 8.04261H30.8148ZM35.0591 3.19105V0.909091H45.8105V3.19105H41.8027V14H39.0669V3.19105H35.0591ZM58.5307 0.909091V14H56.1401L50.4448 5.76065H50.3489V14H47.5811V0.909091H50.0101L55.6607 9.14205H55.7757V0.909091H58.5307ZM60.8175 14V0.909091H69.6385V3.19105H63.5852V6.31037H69.1847V8.59233H63.5852V11.718H69.6641V14H60.8175ZM71.839 14V0.909091H77.0037C77.9924 0.909091 78.8361 1.08594 79.535 1.43963C80.2381 1.78906 80.7729 2.28551 81.1394 2.92898C81.5101 3.56818 81.6955 4.32031 81.6955 5.18537C81.6955 6.05469 81.508 6.80256 81.133 7.42898C80.758 8.05114 80.2147 8.52841 79.503 8.8608C78.7956 9.19318 77.9391 9.35938 76.9334 9.35938H73.4753V7.13494H76.486C77.0144 7.13494 77.4533 7.0625 77.8027 6.91761C78.1522 6.77273 78.4121 6.5554 78.5826 6.26562C78.7573 5.97585 78.8446 5.61577 78.8446 5.18537C78.8446 4.75071 78.7573 4.38423 78.5826 4.08594C78.4121 3.78764 78.15 3.56179 77.7963 3.40838C77.4469 3.25071 77.0059 3.17188 76.4732 3.17188H74.6067V14H71.839ZM78.9086 8.04261L82.1621 14H79.1067L75.9235 8.04261H78.9086Z" fill="#0271E8"/>
</svg>
