<svg width="38" height="38" viewBox="0 0 38 38" fill="none" xmlns="http://www.w3.org/2000/svg">
<circle cx="19" cy="19" r="19" fill="white"/>
<g clip-path="url(#clip0_504_945)">
<path d="M25.3898 12.4301C25.3432 12.3493 25.2664 12.2904 25.1764 12.2663L22.5393 11.5597C22.575 11.4567 22.6013 11.3497 22.618 11.24C23.016 11.1156 23.348 10.8506 23.5578 10.4872C23.7792 10.1037 23.838 9.65688 23.7234 9.2291C23.4868 8.346 22.5757 7.8201 21.6928 8.05666C21.125 8.20879 20.7054 8.63977 20.5406 9.16269C20.4741 9.17281 20.4081 9.18593 20.3431 9.20336C19.8725 9.32944 19.4793 9.63122 19.2357 10.0531C19.1329 10.2312 19.0623 10.4217 19.0241 10.6178L14.1556 9.31326C14.0654 9.28908 13.9695 9.30177 13.8888 9.34839C13.8081 9.395 13.7491 9.47178 13.725 9.56186L10.5751 21.3174C10.5509 21.4075 10.5636 21.5034 10.6102 21.5842C10.6568 21.6649 10.7336 21.7239 10.8237 21.748L13.0905 22.3554V25.6485C13.0905 25.8426 13.2479 26 13.4421 26H24.8517C25.0458 26 25.2032 25.8426 25.2032 25.6485V13.5245L25.425 12.6968C25.4491 12.6068 25.4365 12.5108 25.3898 12.4301ZM21.8748 8.73585C22.3834 8.5998 22.908 8.9025 23.0442 9.41107C23.1102 9.65745 23.0764 9.91479 22.9489 10.1356C22.8213 10.3565 22.6154 10.5145 22.369 10.5806C22.1226 10.6465 21.8653 10.6127 21.6444 10.4852C21.4236 10.3576 21.2656 10.1517 21.1995 9.90537C21.0633 9.3968 21.3661 8.87216 21.8748 8.73585ZM19.8446 10.4047C19.9866 10.1587 20.2115 9.97937 20.4813 9.89546C20.4905 9.95941 20.5032 10.0235 20.5204 10.0873C20.635 10.5151 20.9093 10.8727 21.2929 11.0941C21.4782 11.2011 21.6784 11.2696 21.8841 11.2995C21.7714 11.658 21.4824 11.9464 21.1051 12.0475C20.5083 12.2073 19.8926 11.8519 19.7326 11.2551C19.6552 10.9659 19.6949 10.6639 19.8446 10.4047ZM14.3132 10.0834L19.0319 11.3478C19.0383 11.3776 19.0455 11.4074 19.0534 11.437C19.1069 11.6365 19.1918 11.8193 19.3011 11.9818L18.9326 12.3502C18.7954 12.4875 18.7954 12.7101 18.9326 12.8474C19.0013 12.9161 19.0913 12.9504 19.1812 12.9504C19.2712 12.9504 19.3612 12.9161 19.4298 12.8474L19.7991 12.4782C20.0955 12.6769 20.4485 12.789 20.8155 12.789C20.9713 12.789 21.1297 12.7689 21.2871 12.7267C21.6351 12.6334 21.9373 12.4423 22.1673 12.1879L24.6548 12.8544L22.2775 21.7266L20.4129 21.227C20.2254 21.1767 20.0326 21.2881 19.9824 21.4756L19.4827 23.3402L11.3453 21.1598L14.3132 10.0834ZM21.6153 22.2772L20.2906 23.042L20.5706 21.9972L21.6153 22.2772ZM24.5001 25.2969H13.7936V22.5438L19.6403 24.1104C19.6703 24.1185 19.7009 24.1224 19.7313 24.1224C19.7925 24.1224 19.8532 24.1064 19.9071 24.0753L22.7019 22.4617C22.7826 22.4151 22.8416 22.3383 22.8657 22.2483L24.5001 16.1486V25.2969H24.5001Z" fill="#EE7B16"/>
<path d="M14.9144 14.6318L21.86 16.4929C21.8905 16.5011 21.9211 16.505 21.9512 16.505C22.1064 16.505 22.2485 16.4014 22.2906 16.2443C22.3409 16.0568 22.2295 15.864 22.042 15.8138L15.0964 13.9526C14.9087 13.9023 14.716 14.0137 14.6658 14.2012C14.6155 14.3888 14.7268 14.5816 14.9144 14.6318Z" fill="#EE7B16"/>
<path d="M14.5487 15.9963L21.4944 17.8574C21.5248 17.8656 21.5555 17.8695 21.5856 17.8695C21.7408 17.8695 21.8829 17.7659 21.925 17.6088C21.9752 17.4213 21.8639 17.2285 21.6764 17.1783L14.7307 15.3171C14.5432 15.2668 14.3504 15.3782 14.3001 15.5657C14.2499 15.7533 14.3612 15.946 14.5487 15.9963Z" fill="#EE7B16"/>
<path d="M16.3094 17.2026L14.3652 16.6816C14.1776 16.6313 13.9848 16.7427 13.9346 16.9302C13.8843 17.1178 13.9956 17.3105 14.1831 17.3608L16.1274 17.8817C16.1579 17.8899 16.1885 17.8938 16.2187 17.8938C16.3739 17.8938 16.5159 17.7902 16.558 17.6331C16.6083 17.4456 16.497 17.2529 16.3094 17.2026Z" fill="#EE7B16"/>
<path d="M17.7469 17.6002H17.7467C17.5525 17.6002 17.3953 17.7576 17.3953 17.9518C17.3953 18.1459 17.5528 18.3033 17.7469 18.3033C17.9411 18.3033 18.0985 18.1459 18.0985 17.9518C18.0985 17.7576 17.9411 17.6002 17.7469 17.6002Z" fill="#EE7B16"/>
</g>
<defs>
<clipPath id="clip0_504_945">
<rect width="18" height="18" fill="white" transform="translate(9 8)"/>
</clipPath>
</defs>
</svg>
