<svg width="38" height="38" viewBox="0 0 38 38" fill="none" xmlns="http://www.w3.org/2000/svg">
<circle cx="19" cy="19" r="19" fill="#F2994A" fill-opacity="0.2"/>
<path d="M26.5224 14.3391C26.4768 14.26 26.4016 14.2023 26.3134 14.1787L23.7304 13.4866C23.7653 13.3857 23.7911 13.2809 23.8075 13.1735C24.1974 13.0517 24.5225 12.7921 24.728 12.4362C24.9449 12.0605 25.0025 11.6229 24.8902 11.2039C24.6584 10.3389 23.7661 9.82379 22.9012 10.0555C22.3452 10.2045 21.9341 10.6266 21.7727 11.1388C21.7076 11.1487 21.6429 11.1616 21.5793 11.1787C21.1184 11.3022 20.7332 11.5977 20.4946 12.011C20.3939 12.1854 20.3248 12.372 20.2874 12.5641L15.5187 11.2863C15.4304 11.2626 15.3365 11.2751 15.2574 11.3207C15.1784 11.3664 15.1206 11.4416 15.097 11.5298L12.0117 23.0441C11.9881 23.1323 12.0005 23.2263 12.0461 23.3054C12.0918 23.3845 12.167 23.4422 12.2552 23.4658L14.4755 24.0608V27.2863C14.4755 27.4764 14.6297 27.6306 14.8199 27.6306H25.9953C26.1855 27.6306 26.3397 27.4764 26.3397 27.2863V15.4111L26.5569 14.6004C26.5805 14.5122 26.5681 14.4182 26.5224 14.3391ZM23.0795 10.7208C23.5777 10.5875 24.0915 10.884 24.225 11.3821C24.2896 11.6234 24.2564 11.8755 24.1316 12.0918C24.0067 12.3082 23.8049 12.4629 23.5636 12.5276C23.3223 12.5922 23.0702 12.5591 22.8539 12.4342C22.6376 12.3092 22.4828 12.1076 22.4181 11.8663C22.2847 11.3681 22.5813 10.8543 23.0795 10.7208ZM21.091 12.3553C21.2301 12.1144 21.4504 11.9388 21.7146 11.8566C21.7237 11.9192 21.7361 11.9819 21.7529 12.0445C21.8651 12.4635 22.1339 12.8137 22.5096 13.0306C22.6911 13.1354 22.8872 13.2025 23.0886 13.2318C22.9782 13.583 22.6952 13.8654 22.3257 13.9644C21.7411 14.121 21.138 13.7729 20.9813 13.1883C20.9054 12.9051 20.9444 12.6093 21.091 12.3553ZM15.6731 12.0406L20.295 13.2791C20.3013 13.3083 20.3083 13.3374 20.3161 13.3665C20.3684 13.5619 20.4516 13.7409 20.5586 13.9001L20.1978 14.2609C20.0633 14.3954 20.0633 14.6135 20.1978 14.748C20.265 14.8152 20.3531 14.8488 20.4413 14.8488C20.5294 14.8488 20.6175 14.8152 20.6847 14.748L21.0464 14.3863C21.3367 14.5809 21.6825 14.6907 22.042 14.6907C22.1946 14.6907 22.3497 14.671 22.5039 14.6297C22.8447 14.5384 23.1408 14.3512 23.366 14.102L25.8025 14.7548L23.474 23.4449L21.6477 22.9556C21.464 22.9063 21.2751 23.0154 21.2259 23.1991L20.7366 25.0254L12.7661 22.8897L15.6731 12.0406ZM22.8254 23.9841L21.5279 24.7332L21.8021 23.7099L22.8254 23.9841ZM25.651 26.9419H15.1642V24.2453L20.8909 25.7798C20.9203 25.7876 20.9502 25.7915 20.9801 25.7915C21.04 25.7915 21.0994 25.7759 21.1522 25.7454L23.8896 24.1649C23.9687 24.1193 24.0265 24.0441 24.0501 23.9558L25.6509 17.9813V26.9419H25.651Z" fill="#EE7B16"/>
<path d="M16.2619 16.4957L23.065 18.3186C23.0948 18.3266 23.1248 18.3304 23.1543 18.3304C23.3064 18.3304 23.4455 18.2289 23.4867 18.0751C23.536 17.8914 23.427 17.7026 23.2432 17.6534L16.4402 15.8304C16.2564 15.7812 16.0676 15.8902 16.0184 16.0739C15.9692 16.2576 16.0782 16.4464 16.2619 16.4957Z" fill="#EE7B16"/>
<path d="M15.9038 17.8323L22.7069 19.6552C22.7368 19.6632 22.7668 19.6671 22.7963 19.6671C22.9483 19.6671 23.0875 19.5656 23.1287 19.4118C23.1779 19.2281 23.0689 19.0393 22.8852 18.99L16.0821 17.1671C15.8984 17.1178 15.7096 17.2269 15.6604 17.4106C15.6111 17.5943 15.7202 17.7831 15.9038 17.8323Z" fill="#EE7B16"/>
<path d="M17.6283 19.0138L15.7239 18.5035C15.5402 18.4543 15.3514 18.5633 15.3022 18.747C15.2529 18.9307 15.362 19.1195 15.5457 19.1687L17.4501 19.679C17.4799 19.687 17.5099 19.6908 17.5394 19.6908C17.6914 19.6908 17.8306 19.5894 17.8718 19.4355C17.9211 19.2518 17.812 19.063 17.6283 19.0138Z" fill="#EE7B16"/>
<path d="M19.0365 19.4031H19.0362C18.846 19.4031 18.692 19.5573 18.692 19.7474C18.692 19.9376 18.8463 20.0918 19.0365 20.0918C19.2266 20.0918 19.3808 19.9376 19.3808 19.7474C19.3808 19.5573 19.2266 19.4031 19.0365 19.4031Z" fill="#EE7B16"/>
</svg>
