<svg width="21" height="21" viewBox="0 0 21 21" fill="none" xmlns="http://www.w3.org/2000/svg">
<path d="M9.15788 2.94234C9.58428 1.18593 12.0822 1.18593 12.5086 2.94234C12.7841 4.07696 14.084 4.61541 15.0811 4.00788C16.6246 3.06742 18.3909 4.83373 17.4504 6.37722C16.8429 7.37429 17.3813 8.67421 18.5159 8.94966C20.2724 9.37606 20.2724 11.874 18.5159 12.3004C17.3813 12.5759 16.8429 13.8758 17.4504 14.8728C18.3909 16.4163 16.6246 18.1826 15.0811 17.2422C14.084 16.6347 12.7841 17.1731 12.5086 18.3077C12.0822 20.0641 9.58428 20.0641 9.15788 18.3077C8.88243 17.1731 7.58251 16.6347 6.58544 17.2422C5.04196 18.1826 3.27564 16.4163 4.2161 14.8728C4.82363 13.8758 4.28518 12.5759 3.15056 12.3004C1.39415 11.874 1.39415 9.37606 3.15056 8.94966C4.28518 8.67421 4.82363 7.37429 4.2161 6.37722C3.27564 4.83373 5.04196 3.06742 6.58544 4.00788C7.58251 4.61541 8.88243 4.07696 9.15788 2.94234Z" stroke="#6B7280" stroke-width="2" stroke-linecap="round" stroke-linejoin="round"/>
<path d="M13.8333 10.625C13.8333 12.2819 12.4901 13.625 10.8333 13.625C9.1764 13.625 7.83325 12.2819 7.83325 10.625C7.83325 8.96818 9.1764 7.62503 10.8333 7.62503C12.4901 7.62503 13.8333 8.96818 13.8333 10.625Z" stroke="#6B7280" stroke-width="2" stroke-linecap="round" stroke-linejoin="round"/>
</svg>
