<svg width="16" height="18" viewBox="0 0 16 18" fill="none" xmlns="http://www.w3.org/2000/svg">
<path d="M12.714 12.8807C11.9197 13.6751 10.2431 15.3517 9.11881 16.4759C8.50048 17.0943 7.49912 17.0939 6.88079 16.4755C5.77599 15.3707 4.13284 13.7276 3.28595 12.8807C0.682454 10.2772 0.682454 6.05612 3.28595 3.45262C5.88945 0.849126 10.1105 0.849126 12.714 3.45262C15.3175 6.05612 15.3175 10.2772 12.714 12.8807Z" stroke="#B34DE2" stroke-width="1.58333" stroke-linecap="round" stroke-linejoin="round"/>
<path d="M10.5 8.16667C10.5 9.54738 9.38071 10.6667 8 10.6667C6.61928 10.6667 5.5 9.54738 5.5 8.16667C5.5 6.78595 6.61928 5.66667 8 5.66667C9.38071 5.66667 10.5 6.78595 10.5 8.16667Z" stroke="#B34DE2" stroke-width="1.58333" stroke-linecap="round" stroke-linejoin="round"/>
</svg>
