<svg width="18" height="17" viewBox="0 0 18 17" fill="none" xmlns="http://www.w3.org/2000/svg">
<path d="M1.5 13.8333V6.39198C1.5 5.83473 1.7785 5.31434 2.24217 5.00523L8.0755 1.11634C8.63533 0.74312 9.36467 0.74312 9.9245 1.11634L15.7578 5.00523C16.2215 5.31434 16.5 5.83473 16.5 6.39198V13.8333M1.5 13.8333C1.5 14.7538 2.24619 15.5 3.16667 15.5H14.8333C15.7538 15.5 16.5 14.7538 16.5 13.8333M1.5 13.8333L7.125 10.0833M16.5 13.8333L10.875 10.0833M1.5 6.33334L7.125 10.0833M16.5 6.33334L10.875 10.0833M10.875 10.0833L9.9245 10.717C9.36467 11.0902 8.63533 11.0902 8.0755 10.717L7.125 10.0833" stroke="#3E9269" stroke-width="1.66667" stroke-linecap="round" stroke-linejoin="round"/>
</svg>
